<?xml version="1.0" encoding="UTF-8"?>
<svg version="1.1" xmlns="http://www.w3.org/2000/svg" width="1280" height="1280">
<path d="M0 0 C132.66 0 265.32 0 402 0 C402 12.87 402 25.74 402 39 C405.08475677 38.99555878 408.16951355 38.99111755 411.3477478 38.98654175 C439.65534404 38.94671818 467.96293261 38.91687343 496.27054974 38.89786934 C499.98293816 38.89536802 503.69532652 38.89277937 507.40771484 38.89013672 C508.1467642 38.8896121 508.88581356 38.88908748 509.64725836 38.88854696 C521.60358689 38.87985154 533.55989613 38.86408632 545.51621322 38.84569441 C557.790455 38.82697134 570.0646867 38.81587819 582.33894217 38.81182301 C589.90882011 38.80908294 597.47864352 38.80043807 605.04850467 38.78416707 C610.85946653 38.77231526 616.67039367 38.77109473 622.4813652 38.77378464 C624.86052791 38.77323524 627.23969271 38.76926794 629.61884308 38.76158905 C632.87344247 38.75160143 636.12781075 38.75404514 639.38241577 38.75949097 C640.31824253 38.75366528 641.2540693 38.7478396 642.21825445 38.74183738 C648.3597443 38.76950904 654.0258983 39.59854612 660 41 C661.0003125 41.22300781 662.000625 41.44601563 663.03125 41.67578125 C669.49116148 43.34186602 675.15598638 45.79276476 681 49 C681 49.66 681 50.32 681 51 C681.721875 51.061875 682.44375 51.12375 683.1875 51.1875 C686.8711327 52.25166056 688.37943656 54.24840839 691 57 C691.845625 57.495 692.69125 57.99 693.5625 58.5 C696.43012631 60.26469311 697.9597064 62.34761832 700 65 C700.99 65.66 701.98 66.32 703 67 C704.02611949 68.65071396 705.02308143 70.31970006 706 72 C707.0828125 73.299375 707.0828125 73.299375 708.1875 74.625 C710 77 710 77 710 80 C710.66 80 711.32 80 712 80 C713.88854726 84.29215285 715.5694309 88.52947157 717 93 C717.24432524 93.65112191 717.48865047 94.30224382 717.7403795 94.97309669 C719.68717862 100.3090062 720.43263747 104.90000374 720.38476086 110.55691624 C720.38991076 111.37265508 720.39506067 112.18839393 720.40036663 113.02885213 C720.41393276 115.749743 720.40631506 118.47014746 720.39872742 121.1910553 C720.40416917 123.16635648 720.41092168 125.14165442 720.41886932 127.11694711 C720.43688667 132.53520172 720.43633851 137.9533192 720.43273985 143.37159669 C720.43211594 149.21814142 720.44873672 155.06464016 720.46325684 160.91116333 C720.48604867 171.03745425 720.49792897 181.16371076 720.50238609 191.29002571 C720.50884612 205.93094437 720.53177102 220.57180936 720.55872939 235.21270137 C720.60227006 258.96690538 720.63199295 282.72110853 720.65356445 306.4753418 C720.67455013 329.54957363 720.70181045 352.62378414 720.73754883 375.69799805 C720.73864831 376.40947898 720.73974778 377.12095992 720.74088058 377.85400088 C720.75192909 384.99910625 720.76310498 392.14421141 720.7743742 399.28931644 C720.79732717 413.84419792 720.81943003 428.39908066 720.84101868 442.95396423 C720.8420123 443.62314684 720.84300591 444.29232945 720.84402964 444.98179031 C720.91026338 489.65450951 720.95661922 534.32725347 721 579 C722.65 579.33 724.3 579.66 726 580 C726 580.66 726 581.32 726 582 C726.78375 582.0825 727.5675 582.165 728.375 582.25 C735.99822182 583.82721831 743.01232404 587.40249288 750.0625 590.625 C751.06398071 591.07673584 751.06398071 591.07673584 752.08569336 591.53759766 C756.88291651 593.76583302 756.88291651 593.76583302 758 596 C760.31470912 596.72870472 762.6505947 597.39239518 765 598 C765.99 598.33 766.98 598.66 768 599 C768 599.66 768 600.32 768 601 C768.845625 601.268125 769.69125 601.53625 770.5625 601.8125 C776.55600705 603.88298426 781.9413899 606.17519724 787 610 C787 610.66 787 611.32 787 612 C787.763125 612.103125 788.52625 612.20625 789.3125 612.3125 C792.31899016 613.08160213 792.9122387 613.82872825 795 616 C795.886875 616.433125 796.77375 616.86625 797.6875 617.3125 C801.04218215 619.02148902 803.76551296 620.97665503 806.734375 623.265625 C809.26831726 625.20540149 811.84860444 627.07175962 814.4375 628.9375 C821.53809006 634.10335114 828.33899694 639.1543503 834.4296875 645.5 C836.40776753 647.38950928 838.65149564 648.61852685 841 650 C841.33 650.99 841.66 651.98 842 653 C842.99 653.33 843.98 653.66 845 654 C845 654.66 845 655.32 845 656 C845.66 656 846.32 656 847 656 C847 656.66 847 657.32 847 658 C847.66 658 848.32 658 849 658 C849 658.66 849 659.32 849 660 C849.88643188 660.39747437 849.88643188 660.39747437 850.79077148 660.80297852 C853.06848284 662.03710591 854.53973965 663.30977742 856.34765625 665.15234375 C856.95287109 665.76400391 857.55808594 666.37566406 858.18164062 667.00585938 C858.80232422 667.64330078 859.42300781 668.28074219 860.0625 668.9375 C860.68705078 669.57107422 861.31160156 670.20464844 861.95507812 670.85742188 C863.11828251 672.03800605 864.27941431 673.22063864 865.43774414 674.40600586 C866.49991938 675.48975991 867.58921972 676.54744068 868.70092773 677.58032227 C870 679 870 679 870 681 C870.99 681.33 871.98 681.66 873 682 C873 682.99 873 683.98 873 685 C873.66 685 874.32 685 875 685 C879.47118707 689.02406836 883.14109042 693.71101728 886 699 C886 699.66 886 700.32 886 701 C886.99 701.33 887.98 701.66 889 702 C889 702.66 889 703.32 889 704 C889.99 704.33 890.98 704.66 892 705 C892.268125 705.70125 892.53625 706.4025 892.8125 707.125 C894.23037176 710.55774216 896.22803047 712.67652982 898.7578125 715.3515625 C900 717 900 717 900 720 C900.66 720 901.32 720 902 720 C902.37125 721.11375 902.37125 721.11375 902.75 722.25 C903.84516432 725.08656168 903.84516432 725.08656168 906.0625 727.0625 C908.17195292 729.17195292 908.34643205 730.19899449 909 733 C909.99 733.66 910.98 734.32 912 735 C915 741.11111111 915 741.11111111 915 745 C915.66 745 916.32 745 917 745 C919.03435531 748.72965139 920 750.66905042 920 755 C920.99 755.33 921.98 755.66 923 756 C924.70533217 759.32091002 925 761.18492784 925 765 C925.99 765.33 926.98 765.66 928 766 C929.70533217 769.32091002 930 771.18492784 930 775 C930.66 775 931.32 775 932 775 C933.8893507 779.29397887 935.54339054 783.53565878 937 788 C937.66589273 790.02108849 938.3325577 792.04192271 939 794.0625 C939.33 795.06410156 939.66 796.06570313 940 797.09765625 C940.92117726 799.77122931 941.9333346 802.38182129 943 805 C944.35474895 808.6879277 945 811.02070903 945 815 C945.66 815 946.32 815 947 815 C950.05417547 826.69806829 950.05417547 826.69806829 950.5625 831 C950.82458912 833.90020596 950.82458912 833.90020596 951.95703125 835.90625 C955.63767255 843.29510294 955.24862127 851.96124558 955 860 C955.66 860 956.32 860 957 860 C958.47786392 864.43359177 958.38918209 868.90658572 958.62109375 873.5546875 C958.8085997 876.880932 958.8085997 876.880932 960.00750732 879.24778748 C961.24988772 882.69294628 961.28009506 885.86839267 961.25878906 889.48071289 C961.2622937 890.21628922 961.26579834 890.95186554 961.26940918 891.70973206 C961.27818118 894.13080398 961.27239408 896.55158157 961.265625 898.97265625 C961.26697281 900.6598669 961.26891431 902.34707717 961.27142334 904.0342865 C961.27436833 907.56561999 961.27009652 911.09685214 961.26074219 914.62817383 C961.24933925 919.15320671 961.25591636 923.67800255 961.26788712 928.20302677 C961.27511512 931.68515305 961.27281361 935.16722315 961.26763153 938.64935112 C961.26629809 940.31790635 961.26793206 941.98646669 961.27259064 943.65501595 C961.27767229 945.98637531 961.26992317 948.31735085 961.25878906 950.64868164 C961.26283752 951.33710144 961.26688599 952.02552124 961.27105713 952.73480225 C961.2387277 956.39071261 960.82000154 958.84019069 959 962 C958.75814691 964.30584933 958.59888532 966.62111149 958.5 968.9375 C958.30509934 973.493303 957.75636972 976.8191513 956 981 C955.65827023 983.45276137 955.65827023 983.45276137 955.5625 986 C954.31203976 1002.68796024 954.31203976 1002.68796024 951 1006 C950.5077043 1008.35174995 950.05569351 1010.69946774 949.625 1013.0625 C948.56001391 1018.62944275 947.37580348 1023.83520982 945 1029 C944.34 1029.33 943.68 1029.66 943 1030 C943.33 1030.66 943.66 1031.32 944 1032 C942.51834799 1038.17355006 940.43917217 1044.24158667 937.5 1049.875 C936.18914201 1052.60595414 935.37175321 1055.03731148 934.5625 1057.9375 C933.2742195 1062.47033879 931.41631867 1065.97280222 929 1070 C928.23959428 1072.26985894 928.23959428 1072.26985894 928 1074 C927.34 1074 926.68 1074 926 1074 C924.515 1078.95 924.515 1078.95 923 1084 C922.34 1084 921.68 1084 921 1084 C920.4740625 1085.85625 920.4740625 1085.85625 919.9375 1087.75 C917.88128787 1093.92847473 914.78289122 1099.70395229 911 1105 C910.01 1105.33 909.02 1105.66 908 1106 C908.103125 1106.70125 908.20625 1107.4025 908.3125 1108.125 C907.78864268 1112.9444873 904.3096086 1115.6903914 901 1119 C900.54625 1119.66 900.0925 1120.32 899.625 1121 C897.87845345 1123.14959576 896.46972119 1123.84746344 894 1125 C893.67 1125.66 893.34 1126.32 893 1127 C893.45375 1126.505 893.9075 1126.01 894.375 1125.5 C896 1124 896 1124 898 1124 C896.68544658 1126.93246533 895.25126383 1128.74873617 893 1131 C892.525625 1131.804375 892.05125 1132.60875 891.5625 1133.4375 C890 1136 890 1136 888 1137.9375 C885.85262598 1139.91357509 885.85262598 1139.91357509 884.8125 1142.6875 C882.54971402 1146.82293644 879.58019937 1149.55251359 876.15625 1152.75390625 C873.96216087 1154.84305741 873.96216087 1154.84305741 872.81005859 1157.17895508 C870.30742822 1161.07939938 867.16014321 1164.12532077 863.8828125 1167.3828125 C863.18864227 1168.07889618 862.49447205 1168.77497986 861.77926636 1169.49215698 C860.31412389 1170.95865699 858.84646646 1172.42264813 857.37646484 1173.88427734 C855.13276207 1176.11727497 852.89992028 1178.3607323 850.66796875 1180.60546875 C849.24022414 1182.03189169 847.81185922 1183.45769406 846.3828125 1184.8828125 C845.71806915 1185.55160431 845.05332581 1186.22039612 844.36843872 1186.90945435 C841.09766466 1190.14752954 838.07651244 1192.78547334 834 1195 C832.64741119 1196.29264749 831.33379037 1197.62731838 830.0625 1199 C826.90678717 1202.25636408 824.1021448 1204.03810466 820 1206 C818.40402049 1207.46128047 816.93352059 1209.00421964 815.44921875 1210.578125 C813.5219871 1212.46899379 811.35017349 1213.69434806 809 1215 C808.34 1215.66 807.68 1216.32 807 1217 C805.68 1217 804.36 1217 803 1217 C802.773125 1217.61875 802.54625 1218.2375 802.3125 1218.875 C800.59946644 1221.64848291 799.00080453 1221.85683637 796 1223 C794.64631404 1224.31266518 793.31200404 1225.64567325 792 1227 C790.1875 1228 790.1875 1228 788 1229 C786.85199144 1229.68386156 785.7063625 1230.37172589 784.5625 1231.0625 C781.73598108 1232.70114998 779.28047665 1233.60236647 776 1234 C776 1234.66 776 1235.32 776 1236 C772.27034861 1238.03435531 770.33094958 1239 766 1239 C765.67 1239.99 765.34 1240.98 765 1242 C761.67908998 1243.70533217 759.81507216 1244 756 1244 C755.67 1244.99 755.34 1245.98 755 1247 C751.67908998 1248.70533217 749.81507216 1249 746 1249 C746 1249.66 746 1250.32 746 1251 C744.71416016 1251.48919922 744.71416016 1251.48919922 743.40234375 1251.98828125 C736.18557186 1254.72212123 736.18557186 1254.72212123 729.0625 1257.6875 C726.07180554 1258.9692262 723.09805197 1260.00862337 720 1261 C718.56195518 1261.47752911 717.12450113 1261.95683931 715.6875 1262.4375 C714.91921875 1262.69273438 714.1509375 1262.94796875 713.359375 1263.2109375 C711.80518327 1263.73071685 710.25302239 1264.25661476 708.703125 1264.7890625 C700.94888896 1267.43619825 694.2484806 1269.29458859 686 1269 C686 1269.66 686 1270.32 686 1271 C684.93458984 1271.19916016 684.93458984 1271.19916016 683.84765625 1271.40234375 C682.92855469 1271.57894531 682.00945313 1271.75554687 681.0625 1271.9375 C679.68771484 1272.19853516 679.68771484 1272.19853516 678.28515625 1272.46484375 C676.04710156 1272.77714988 676.04710156 1272.77714988 675 1274 C672.66702567 1274.04092937 670.33294775 1274.04241723 668 1274 C667.67 1274.99 667.34 1275.98 667 1277 C664.36 1277.33 661.72 1277.66 659 1278 C659 1278.66 659 1279.32 659 1280 C356.72 1280 54.44 1280 -257 1280 C-257 1279.34 -257 1278.68 -257 1278 C-258.27875 1277.87625 -259.5575 1277.7525 -260.875 1277.625 C-264.75 1277.25 -264.75 1277.25 -267 1275 C-268.64655265 1274.41870016 -270.31748168 1273.90459447 -272 1273.4375 C-276.8410596 1272.0794702 -276.8410596 1272.0794702 -279 1271 C-279 1270.34 -279 1269.68 -279 1269 C-279.721875 1268.938125 -280.44375 1268.87625 -281.1875 1268.8125 C-284.8711327 1267.74833944 -286.37943656 1265.75159161 -289 1263 C-289.78375 1262.54625 -290.5675 1262.0925 -291.375 1261.625 C-297.23861024 1257.99514604 -301.39709803 1252.8111322 -305 1247 C-305.46148437 1246.34386719 -305.92296875 1245.68773437 -306.3984375 1245.01171875 C-310.3802973 1239.32190385 -313.44273984 1233.45686951 -316 1227 C-316.51157929 1225.83591028 -317.02315858 1224.67182055 -317.55024028 1223.47245538 C-320.06680368 1215.78224406 -319.4074878 1207.47231921 -319.3719368 1199.47196388 C-319.3744604 1197.55912254 -319.37829994 1195.64628256 -319.38333416 1193.73344618 C-319.39337357 1188.46425516 -319.38468204 1183.19523471 -319.37299994 1177.92605318 C-319.36360049 1172.19852941 -319.37159444 1166.47102595 -319.37739825 1160.74350107 C-319.38516348 1150.70117094 -319.38175458 1140.65889245 -319.37107468 1130.6165657 C-319.35964767 1119.84200135 -319.35459846 1109.06746966 -319.35761642 1098.29290009 C-319.35780298 1097.61224932 -319.35798954 1096.93159855 -319.35818175 1096.23032201 C-319.35916214 1092.75964297 -319.36024695 1089.28896398 -319.36136696 1085.81828498 C-319.369245 1060.69934015 -319.36246439 1035.58041623 -319.34775543 1010.46147537 C-319.33321729 985.58358211 -319.32444851 960.7056984 -319.32357025 935.82780075 C-319.32350862 934.26607451 -319.32344691 932.70434828 -319.32338512 931.14262204 C-319.32314941 924.86692441 -319.32296358 918.59122678 -319.32283698 912.31552915 C-319.32247521 894.77241208 -319.32112713 877.22929516 -319.31907272 859.68617821 C-319.31893324 858.48785383 -319.31893324 858.48785383 -319.31879094 857.26532089 C-319.31417259 818.40327718 -319.29800987 779.54123925 -319.28125 740.67919922 C-319.25794192 686.63232316 -319.24378106 632.58545526 -319.24023438 578.53857422 C-319.24012199 576.8564192 -319.24000934 575.17426417 -319.23989645 573.49210915 C-319.23950299 567.61595855 -319.23911582 561.73980794 -319.23872932 555.86365734 C-319.23839923 550.84535778 -319.23806735 545.82705823 -319.23773346 540.80875868 C-319.237568 538.30663022 -319.23740586 535.80450176 -319.23724384 533.3023733 C-319.23381599 480.98920055 -319.22265959 428.67602924 -319.21000063 376.36285801 C-319.20605621 360.02879369 -319.20255752 343.69472947 -319.20018864 327.36066484 C-319.19539248 294.64023992 -319.18834257 261.91981986 -319.17204097 229.19939835 C-319.17067809 226.43916342 -319.16932814 223.67892848 -319.16798782 220.91869354 C-319.16765696 220.24126316 -319.1673261 219.56383278 -319.16698522 218.86587421 C-319.16213435 208.77306643 -319.16007321 198.68026081 -319.15958023 188.58745193 C-319.15903035 177.37295095 -319.15521288 166.15845766 -319.14680431 154.94395968 C-319.1426626 149.29101155 -319.14013191 143.63807478 -319.14191952 137.98512514 C-319.14350515 132.85234658 -319.1405652 127.71959218 -319.13386396 122.58681793 C-319.1322582 120.73215682 -319.13236016 118.87749334 -319.13429123 117.02283255 C-319.13665546 114.5212135 -319.13296055 112.01967689 -319.1276505 109.51806414 C-319.13088221 108.42735892 -319.13088221 108.42735892 -319.1341792 107.31461925 C-319.12188428 104.26138692 -318.97393838 101.92181514 -318 99 C-317.4678644 96.9403871 -316.94820656 94.87753085 -316.4375 92.8125 C-316.16808594 91.72582031 -315.89867187 90.63914062 -315.62109375 89.51953125 C-315.41613281 88.68808594 -315.21117187 87.85664062 -315 87 C-314.34 87 -313.68 87 -313 87 C-312.5978125 85.453125 -312.5978125 85.453125 -312.1875 83.875 C-310.3484238 77.54040421 -307.64824311 73.64824311 -303 69 C-302.649375 68.113125 -302.29875 67.22625 -301.9375 66.3125 C-300.76626162 63.42344533 -299.73227373 63.28075331 -297 62 C-296.71125 61.360625 -296.4225 60.72125 -296.125 60.0625 C-294.48620587 57.0580441 -292.03303979 56.48678421 -289 55 C-288.154375 54.154375 -287.30875 53.30875 -286.4375 52.4375 C-283.87537241 49.87537241 -282.33775983 49.23299642 -279 48 C-277.0828317 47.18868436 -275.16619114 46.37612084 -273.25 45.5625 C-261.77483197 40.79524269 -251.96897754 38.84163515 -239.54699707 38.87974548 C-238.51927358 38.87889106 -237.49155009 38.87803663 -236.43268347 38.87715632 C-233.0026304 38.87551441 -229.57262666 38.88100175 -226.14257812 38.88647461 C-223.67837526 38.88675679 -221.2141723 38.88659815 -218.74996948 38.8860321 C-213.45169953 38.88580468 -208.15344481 38.88863383 -202.85517883 38.89426994 C-195.19487365 38.90241339 -187.53457441 38.90500308 -179.87426537 38.90625793 C-167.44449384 38.90844399 -155.0147289 38.91509196 -142.58496094 38.92456055 C-130.51399773 38.93374622 -118.44303631 38.9408214 -106.37207031 38.94506836 C-105.25509965 38.94546244 -105.25509965 38.94546244 -104.11556393 38.94586449 C-100.3797112 38.94716957 -96.64385846 38.94843327 -92.90800571 38.94967639 C-61.93866554 38.9600351 -30.96933413 38.97791739 0 39 C0 26.13 0 13.26 0 0 Z M-308 75 C-307 77 -307 77 -307 77 Z M707 76 C708 78 708 78 708 78 Z M940 801 C939.67 801.66 939.34 802.32 939 803 C939.66 803 940.32 803 941 803 C940.67 802.34 940.34 801.68 940 801 Z M946 821 C947 824 947 824 947 824 Z M948 830 C949 833 949 833 949 833 Z M944 1022 C944 1022.99 944 1023.98 944 1025 C944.66 1024.67 945.32 1024.34 946 1024 C946 1023.34 946 1022.68 946 1022 C945.34 1022 944.68 1022 944 1022 Z M943 1025 C944 1027 944 1027 944 1027 Z M938 1038 C938 1038.66 938 1039.32 938 1040 C938.66 1039.67 939.32 1039.34 940 1039 C939.34 1038.67 938.68 1038.34 938 1038 Z M933 1052 C933.33 1052.99 933.66 1053.98 934 1055 C934.33 1054.01 934.66 1053.02 935 1052 C934.34 1052 933.68 1052 933 1052 Z M883 1141 C884 1143 884 1143 884 1143 Z M783 1227 C783.33 1227.99 783.66 1228.98 784 1230 C784.33 1229.01 784.66 1228.02 785 1227 C784.34 1227 783.68 1227 783 1227 Z M668 1272 C668 1272.33 668 1272.66 668 1273 C670.31 1273 672.62 1273 675 1273 C675 1272.67 675 1272.34 675 1272 C672.69 1272 670.38 1272 668 1272 Z M660 1274 C660 1274.33 660 1274.66 660 1275 C662.31 1275 664.62 1275 667 1275 C667 1274.67 667 1274.34 667 1274 C664.69 1274 662.38 1274 660 1274 Z M656 1275 C660 1276 660 1276 660 1276 Z " fill="#EAEEEF" transform="translate(319,0)"/>
<path d="M0 0 C0.85652161 0.00121857 1.71304321 0.00243713 2.59552002 0.00369263 C12.48595279 0.02022949 22.36946323 0.07422314 32.25 0.5625 C33.04422363 0.60165527 33.83844727 0.64081055 34.65673828 0.68115234 C39.73702423 0.98702423 39.73702423 0.98702423 40.875 2.125 C42.56428633 2.4237995 44.26349127 2.66678886 45.96484375 2.88671875 C71.58837985 6.34610625 95.87119875 12.39454187 120.3984375 20.39404297 C122.76433549 21.21935912 122.76433549 21.21935912 124.875 21.125 C124.875 21.785 124.875 22.445 124.875 23.125 C126.050625 23.24875 126.050625 23.24875 127.25 23.375 C134.87322182 24.95221831 141.88732404 28.52749288 148.9375 31.75 C149.93898071 32.20173584 149.93898071 32.20173584 150.96069336 32.66259766 C155.75791651 34.89083302 155.75791651 34.89083302 156.875 37.125 C159.18970912 37.85370472 161.5255947 38.51739518 163.875 39.125 C164.865 39.455 165.855 39.785 166.875 40.125 C166.875 40.785 166.875 41.445 166.875 42.125 C167.720625 42.393125 168.56625 42.66125 169.4375 42.9375 C175.43100705 45.00798426 180.8163899 47.30019724 185.875 51.125 C185.875 51.785 185.875 52.445 185.875 53.125 C186.638125 53.228125 187.40125 53.33125 188.1875 53.4375 C191.19399016 54.20660213 191.7872387 54.95372825 193.875 57.125 C194.761875 57.558125 195.64875 57.99125 196.5625 58.4375 C199.91718215 60.14648902 202.64051296 62.10165503 205.609375 64.390625 C208.14331726 66.33040149 210.72360444 68.19675962 213.3125 70.0625 C220.41309006 75.22835114 227.21399694 80.2793503 233.3046875 86.625 C235.28276753 88.51450928 237.52649564 89.74352685 239.875 91.125 C240.205 92.115 240.535 93.105 240.875 94.125 C241.865 94.455 242.855 94.785 243.875 95.125 C243.875 95.785 243.875 96.445 243.875 97.125 C244.535 97.125 245.195 97.125 245.875 97.125 C245.875 97.785 245.875 98.445 245.875 99.125 C246.535 99.125 247.195 99.125 247.875 99.125 C247.875 99.785 247.875 100.445 247.875 101.125 C248.46595459 101.38998291 249.05690918 101.65496582 249.66577148 101.92797852 C251.94348284 103.16210591 253.41473965 104.43477742 255.22265625 106.27734375 C256.13047852 107.19483398 256.13047852 107.19483398 257.05664062 108.13085938 C257.67732422 108.76830078 258.29800781 109.40574219 258.9375 110.0625 C259.56205078 110.69607422 260.18660156 111.32964844 260.83007812 111.98242188 C261.99328251 113.16300605 263.15441431 114.34563864 264.31274414 115.53100586 C265.37491938 116.61475991 266.46421972 117.67244068 267.57592773 118.70532227 C268.875 120.125 268.875 120.125 268.875 122.125 C269.865 122.455 270.855 122.785 271.875 123.125 C271.875 124.115 271.875 125.105 271.875 126.125 C272.535 126.125 273.195 126.125 273.875 126.125 C278.34618707 130.14906836 282.01609042 134.83601728 284.875 140.125 C284.875 140.785 284.875 141.445 284.875 142.125 C285.865 142.455 286.855 142.785 287.875 143.125 C287.875 143.785 287.875 144.445 287.875 145.125 C288.865 145.455 289.855 145.785 290.875 146.125 C291.143125 146.82625 291.41125 147.5275 291.6875 148.25 C293.10537176 151.68274216 295.10303047 153.80152982 297.6328125 156.4765625 C298.875 158.125 298.875 158.125 298.875 161.125 C299.535 161.125 300.195 161.125 300.875 161.125 C301.1225 161.8675 301.37 162.61 301.625 163.375 C302.72016432 166.21156168 302.72016432 166.21156168 304.9375 168.1875 C307.04695292 170.29695292 307.22143205 171.32399449 307.875 174.125 C308.865 174.785 309.855 175.445 310.875 176.125 C313.875 182.23611111 313.875 182.23611111 313.875 186.125 C314.535 186.125 315.195 186.125 315.875 186.125 C317.90935531 189.85465139 318.875 191.79405042 318.875 196.125 C319.865 196.455 320.855 196.785 321.875 197.125 C323.58033217 200.44591002 323.875 202.30992784 323.875 206.125 C324.865 206.455 325.855 206.785 326.875 207.125 C328.58033217 210.44591002 328.875 212.30992784 328.875 216.125 C329.535 216.125 330.195 216.125 330.875 216.125 C332.7643507 220.41897887 334.41839054 224.66065878 335.875 229.125 C336.54089273 231.14608849 337.2075577 233.16692271 337.875 235.1875 C338.205 236.18910156 338.535 237.19070313 338.875 238.22265625 C339.79617726 240.89622931 340.8083346 243.50682129 341.875 246.125 C343.22974895 249.8129277 343.875 252.14570903 343.875 256.125 C344.535 256.125 345.195 256.125 345.875 256.125 C348.92917547 267.82306829 348.92917547 267.82306829 349.4375 272.125 C349.69958912 275.02520596 349.69958912 275.02520596 350.83203125 277.03125 C354.51267255 284.42010294 354.12362127 293.08624558 353.875 301.125 C354.535 301.125 355.195 301.125 355.875 301.125 C357.35286392 305.55859177 357.26418209 310.03158572 357.49609375 314.6796875 C357.6835997 318.005932 357.6835997 318.005932 358.88250732 320.37278748 C360.12488772 323.81794628 360.15509506 326.99339267 360.13378906 330.60571289 C360.13904602 331.70907738 360.13904602 331.70907738 360.14440918 332.83473206 C360.15318118 335.25580398 360.14739408 337.67658157 360.140625 340.09765625 C360.14197281 341.7848669 360.14391431 343.47207717 360.14642334 345.1592865 C360.14936833 348.69061999 360.14509652 352.22185214 360.13574219 355.75317383 C360.12433925 360.27820671 360.13091636 364.80300255 360.14288712 369.32802677 C360.15011512 372.81015305 360.14781361 376.29222315 360.14263153 379.77435112 C360.14129809 381.44290635 360.14293206 383.11146669 360.14759064 384.78001595 C360.15267229 387.11137531 360.14492317 389.44235085 360.13378906 391.77368164 C360.13986176 392.80631134 360.13986176 392.80631134 360.14605713 393.85980225 C360.1137277 397.51571261 359.69500154 399.96519069 357.875 403.125 C357.63314691 405.43084933 357.47388532 407.74611149 357.375 410.0625 C357.18009934 414.618303 356.63136972 417.9441513 354.875 422.125 C354.53327023 424.57776137 354.53327023 424.57776137 354.4375 427.125 C353.18703976 443.81296024 353.18703976 443.81296024 349.875 447.125 C349.3827043 449.47674995 348.93069351 451.82446774 348.5 454.1875 C347.43501391 459.75444275 346.25080348 464.96020982 343.875 470.125 C342.885 470.62 342.885 470.62 341.875 471.125 C342.205 471.785 342.535 472.445 342.875 473.125 C341.39334799 479.29855006 339.31417217 485.36658667 336.375 491 C335.06414201 493.73095414 334.24675321 496.16231148 333.4375 499.0625 C332.1492195 503.59533879 330.29131867 507.09780222 327.875 511.125 C327.11459428 513.39485894 327.11459428 513.39485894 326.875 515.125 C326.215 515.125 325.555 515.125 324.875 515.125 C323.885 518.425 322.895 521.725 321.875 525.125 C321.215 525.125 320.555 525.125 319.875 525.125 C319.524375 526.3625 319.17375 527.6 318.8125 528.875 C316.75628787 535.05347473 313.65789122 540.82895229 309.875 546.125 C308.885 546.455 307.895 546.785 306.875 547.125 C307.0296875 548.176875 307.0296875 548.176875 307.1875 549.25 C306.66364268 554.0694873 303.1846086 556.8153914 299.875 560.125 C299.42125 560.785 298.9675 561.445 298.5 562.125 C296.75345345 564.27459576 295.34472119 564.97246344 292.875 566.125 C292.545 566.785 292.215 567.445 291.875 568.125 C292.555625 567.3825 292.555625 567.3825 293.25 566.625 C294.875 565.125 294.875 565.125 296.875 565.125 C295.56044658 568.05746533 294.12626383 569.87373617 291.875 572.125 C291.400625 572.929375 290.92625 573.73375 290.4375 574.5625 C288.875 577.125 288.875 577.125 286.875 579.0625 C284.72762598 581.03857509 284.72762598 581.03857509 283.6875 583.8125 C281.42471402 587.94793644 278.45519937 590.67751359 275.03125 593.87890625 C272.83716087 595.96805741 272.83716087 595.96805741 271.68505859 598.30395508 C269.18242822 602.20439938 266.03514321 605.25032077 262.7578125 608.5078125 C261.71655716 609.55193802 261.71655716 609.55193802 260.65426636 610.61715698 C259.18912389 612.08365699 257.72146646 613.54764813 256.25146484 615.00927734 C254.00776207 617.24227497 251.77492028 619.4857323 249.54296875 621.73046875 C248.11522414 623.15689169 246.68685922 624.58269406 245.2578125 626.0078125 C244.59306915 626.67660431 243.92832581 627.34539612 243.24343872 628.03445435 C239.97266466 631.27252954 236.95151244 633.91047334 232.875 636.125 C231.52241119 637.41764749 230.20879037 638.75231838 228.9375 640.125 C225.78178717 643.38136408 222.9771448 645.16310466 218.875 647.125 C217.27902049 648.58628047 215.80852059 650.12921964 214.32421875 651.703125 C212.3969871 653.59399379 210.22517349 654.81934806 207.875 656.125 C207.215 656.785 206.555 657.445 205.875 658.125 C204.555 658.125 203.235 658.125 201.875 658.125 C201.648125 658.74375 201.42125 659.3625 201.1875 660 C199.47446644 662.77348291 197.87580453 662.98183637 194.875 664.125 C193.52131404 665.43766518 192.18700404 666.77067325 190.875 668.125 C189.0625 669.125 189.0625 669.125 186.875 670.125 C185.72699144 670.80886156 184.5813625 671.49672589 183.4375 672.1875 C180.61098108 673.82614998 178.15547665 674.72736647 174.875 675.125 C174.875 675.785 174.875 676.445 174.875 677.125 C171.14534861 679.15935531 169.20594958 680.125 164.875 680.125 C164.545 681.115 164.215 682.105 163.875 683.125 C160.55408998 684.83033217 158.69007216 685.125 154.875 685.125 C154.545 686.115 154.215 687.105 153.875 688.125 C150.55408998 689.83033217 148.69007216 690.125 144.875 690.125 C144.875 690.785 144.875 691.445 144.875 692.125 C144.01777344 692.45113281 143.16054687 692.77726562 142.27734375 693.11328125 C135.06057186 695.84712123 135.06057186 695.84712123 127.9375 698.8125 C124.94680554 700.0942262 121.97305197 701.13362337 118.875 702.125 C117.43695518 702.60252911 115.99950113 703.08183931 114.5625 703.5625 C113.41007812 703.94535156 113.41007812 703.94535156 112.234375 704.3359375 C110.68018327 704.85571685 109.12802239 705.38161476 107.578125 705.9140625 C99.82388896 708.56119825 93.1234806 710.41958859 84.875 710.125 C84.875 710.785 84.875 711.445 84.875 712.125 C84.16472656 712.25777344 83.45445312 712.39054687 82.72265625 712.52734375 C81.80355469 712.70394531 80.88445312 712.88054688 79.9375 713.0625 C79.02097656 713.23652344 78.10445312 713.41054687 77.16015625 713.58984375 C74.92210156 713.90214988 74.92210156 713.90214988 73.875 715.125 C71.54202567 715.16592937 69.20794775 715.16741723 66.875 715.125 C66.545 716.115 66.215 717.105 65.875 718.125 C63.235 718.455 60.595 718.785 57.875 719.125 C57.875 719.785 57.875 720.445 57.875 721.125 C46.94003529 721.14812297 36.00507634 721.16591485 25.0700922 721.17681217 C19.99308982 721.1820411 14.91610411 721.18913892 9.83911133 721.20043945 C4.94379448 721.21126799 0.04849371 721.21727676 -4.84683418 721.21987724 C-6.71882951 721.22173155 -8.59082391 721.22535228 -10.46281242 721.23073006 C-13.07540699 721.23794004 -15.68793427 721.23899096 -18.30053711 721.23852539 C-19.08240387 721.24212067 -19.86427063 721.24571594 -20.66983032 721.24942017 C-26.01094784 721.23905216 -26.01094784 721.23905216 -27.125 720.125 C-29.14465484 719.82448785 -31.17301515 719.58229548 -33.203125 719.36328125 C-34.49452393 719.21729492 -35.78592285 719.07130859 -37.11645508 718.92089844 C-37.80961823 718.84286987 -38.50278137 718.76484131 -39.21694946 718.68444824 C-103.12460052 711.37142113 -161.62780636 688.05771655 -213.81103516 650.7734375 C-215.97388207 649.23265438 -218.14649689 647.70715638 -220.32421875 646.1875 C-221.57045723 645.31270615 -222.81656083 644.4377201 -224.0625 643.5625 C-225.12339844 642.81871094 -226.18429687 642.07492187 -227.27734375 641.30859375 C-230.15945427 639.09858033 -232.5973346 636.72865534 -235.125 634.125 C-236.96954399 632.40628121 -238.82427544 630.6984496 -240.6875 629 C-241.20272217 628.52844482 -241.71794434 628.05688965 -242.2487793 627.57104492 C-244.9311106 625.11722206 -247.62306618 622.67483828 -250.328125 620.24609375 C-255.36484485 615.7067696 -260.1934108 611.14807025 -264.55859375 605.94140625 C-266.12441916 604.12567355 -267.7740212 602.47557296 -269.5 600.8125 C-274.11250448 596.2510188 -278.1186382 591.21711645 -282.125 586.125 C-282.62338379 585.49239258 -283.12176758 584.85978516 -283.63525391 584.20800781 C-324.34170632 532.30511113 -350.57214077 470.68211584 -358.75048828 405.12646484 C-358.98230967 403.26856904 -359.223593 401.41179422 -359.47998047 399.55712891 C-364.90835787 360.21954114 -361.19277575 318.62674945 -352.125 280.125 C-351.90618164 279.17979492 -351.68736328 278.23458984 -351.46191406 277.26074219 C-341.01842608 232.83423525 -321.67419122 190.22753725 -295.125 153.125 C-294.58327148 152.36396973 -294.04154297 151.60293945 -293.48339844 150.81884766 C-291.74948739 148.3922634 -290.00224712 145.97587104 -288.25 143.5625 C-287.73405273 142.84400879 -287.21810547 142.12551758 -286.68652344 141.38525391 C-277.21299603 128.48007714 -266.21432153 116.87901488 -254.8762207 105.61547852 C-252.92093808 103.67102984 -250.97673406 101.71595325 -249.03320312 99.75976562 C-242.37384312 93.09260049 -235.66623623 86.80329418 -228.125 81.125 C-226.76947333 80.05901881 -225.41525288 78.991374 -224.0625 77.921875 C-214.06810271 70.15026782 -203.82308756 62.89624475 -193.125 56.125 C-192.320625 55.61501465 -191.51625 55.1050293 -190.6875 54.57958984 C-167.33379181 39.93334824 -142.25145128 27.91330348 -116.125 19.125 C-115.12823242 18.7842041 -114.13146484 18.4434082 -113.10449219 18.09228516 C-87.26638422 9.35810381 -60.29924762 3.55702879 -33.125 1.125 C-32.09826172 1.0307373 -31.07152344 0.93647461 -30.01367188 0.83935547 C-20.00430021 0.01684623 -10.03483338 -0.03100522 0 0 Z M338.875 242.125 C338.545 242.785 338.215 243.445 337.875 244.125 C338.535 244.125 339.195 244.125 339.875 244.125 C339.545 243.465 339.215 242.805 338.875 242.125 Z M344.875 262.125 C345.875 265.125 345.875 265.125 345.875 265.125 Z M346.875 271.125 C347.875 274.125 347.875 274.125 347.875 274.125 Z M342.875 463.125 C342.875 464.115 342.875 465.105 342.875 466.125 C343.535 465.795 344.195 465.465 344.875 465.125 C344.875 464.465 344.875 463.805 344.875 463.125 C344.215 463.125 343.555 463.125 342.875 463.125 Z M341.875 466.125 C342.875 468.125 342.875 468.125 342.875 468.125 Z M336.875 479.125 C336.875 479.785 336.875 480.445 336.875 481.125 C337.535 480.795 338.195 480.465 338.875 480.125 C338.215 479.795 337.555 479.465 336.875 479.125 Z M331.875 493.125 C332.205 494.115 332.535 495.105 332.875 496.125 C333.205 495.135 333.535 494.145 333.875 493.125 C333.215 493.125 332.555 493.125 331.875 493.125 Z M281.875 582.125 C282.875 584.125 282.875 584.125 282.875 584.125 Z M181.875 668.125 C182.205 669.115 182.535 670.105 182.875 671.125 C183.205 670.135 183.535 669.145 183.875 668.125 C183.215 668.125 182.555 668.125 181.875 668.125 Z M66.875 713.125 C66.875 713.455 66.875 713.785 66.875 714.125 C69.185 714.125 71.495 714.125 73.875 714.125 C73.875 713.795 73.875 713.465 73.875 713.125 C71.565 713.125 69.255 713.125 66.875 713.125 Z M58.875 715.125 C58.875 715.455 58.875 715.785 58.875 716.125 C61.185 716.125 63.495 716.125 65.875 716.125 C65.875 715.795 65.875 715.465 65.875 715.125 C63.565 715.125 61.255 715.125 58.875 715.125 Z M54.875 716.125 C58.875 717.125 58.875 717.125 58.875 717.125 Z " fill="#49C8EE" transform="translate(920.125,558.875)"/>
<path d="M0 0 C132.66 0 265.32 0 402 0 C402.33 13.2 402.66 26.4 403 40 C402.34 40 401.68 40 401 40 C401.00222061 40.90152298 401.00444122 41.80304596 401.00672913 42.73188782 C401.18682041 119.4643021 401.18682041 119.4643021 400.79147339 147.42001343 C400.76421319 149.48555038 400.74329255 151.55118252 400.72927856 153.61685181 C400.54959024 177.69832759 394.80579706 198.09033691 378 216 C374.49887374 219.25642389 370.84792071 222.16724952 367 225 C366.42121094 225.47695312 365.84242188 225.95390625 365.24609375 226.4453125 C348.47419983 239.81238585 326.85976262 239.4449602 306.62963867 239.40405273 C304.07390546 239.40976278 301.5181748 239.41672948 298.96244812 239.42485046 C292.76896265 239.44087571 286.5756147 239.44289655 280.38211485 239.43763756 C275.34206205 239.43357804 270.30203909 239.43506044 265.26198769 239.44038582 C264.18147844 239.44150845 264.18147844 239.44150845 263.07914073 239.44265376 C261.61524563 239.44418542 260.15135054 239.44572377 258.68745545 239.44726873 C244.99239944 239.46096268 231.29740072 239.45557821 217.60234604 239.44408352 C205.10840151 239.43415648 192.61460519 239.44708816 180.12068351 239.47101771 C167.25269164 239.4954756 154.3847686 239.50500008 141.51675397 239.49836498 C134.30806849 239.4948873 127.09949683 239.49700802 119.89082909 239.51461601 C113.10841383 239.53097912 106.32632479 239.52605292 99.54390144 239.50731087 C97.06607998 239.50364398 94.58823733 239.5066774 92.11043549 239.51719666 C67.33279875 239.61429212 47.83454095 235.93364787 28 220 C27.15824219 219.34644531 26.31648438 218.69289062 25.44921875 218.01953125 C9.82788402 205.07058659 1.92201937 185.92016175 0 166 C-0.45466577 158.09313416 -0.50870966 150.16743377 -0.625 142.25 C-0.66325042 140.08852714 -0.70230606 137.92706838 -0.7421875 135.765625 C-0.83741547 130.51054323 -0.92267827 125.25537416 -1 120 C-31.17537544 119.97721003 -61.35075059 119.95950203 -91.52613273 119.94893467 C-95.08488603 119.94768389 -98.64363931 119.94638958 -102.20239258 119.94506836 C-102.91090597 119.94480605 -103.61941936 119.94454374 -104.34940285 119.94427348 C-115.83651418 119.9399167 -127.32362053 119.93202911 -138.8107289 119.9228472 C-150.58885267 119.91351087 -162.36697382 119.90794443 -174.14510113 119.90591151 C-180.76435114 119.90460395 -187.38358983 119.90151527 -194.00283623 119.89426994 C-200.22514513 119.88751388 -206.44743799 119.88538219 -212.66975021 119.88689232 C-214.96077499 119.8866158 -217.25180027 119.88460824 -219.54282188 119.88079453 C-222.65600437 119.87586373 -225.76912523 119.87699943 -228.88230896 119.87974548 C-229.80155086 119.87683264 -230.72079277 119.8739198 -231.66789049 119.87091869 C-235.6512446 119.47929835 -235.6512446 119.47929835 -239 121 C-239.09824027 122.77645223 -239.12523029 124.55686105 -239.12534916 126.33602762 C-239.12785268 127.50338687 -239.1303562 128.67074613 -239.13293558 129.8734799 C-239.13059442 131.17489989 -239.12825325 132.47631987 -239.12584114 133.81717682 C-239.12688294 135.20455302 -239.12836318 136.59192894 -239.13024551 137.97930425 C-239.13417147 141.82675797 -239.13179302 145.67418688 -239.12846755 149.52164023 C-239.12594709 153.69409121 -239.12918428 157.86653817 -239.13171089 162.03898859 C-239.13533583 169.36331379 -239.13520491 176.68763162 -239.13266373 184.01195717 C-239.12889521 194.90313815 -239.13080768 205.79431288 -239.13387203 216.68549381 C-239.13914956 236.13242109 -239.13867671 255.5793451 -239.13579312 275.0262727 C-239.13328197 292.04415224 -239.1326188 309.06203059 -239.13381577 326.07991028 C-239.13389215 327.20679635 -239.13396854 328.33368241 -239.13404724 329.49471654 C-239.13435855 334.06860215 -239.13467695 338.64248776 -239.135007 343.21637336 C-239.13806906 386.16194217 -239.13528769 429.10750889 -239.1299101 472.05307738 C-239.12516416 510.2448587 -239.12558877 548.43663668 -239.13037109 586.62841797 C-239.13572056 629.49320893 -239.13785194 672.35799804 -239.13475883 715.22278929 C-239.13443809 719.7885561 -239.13412525 724.35432291 -239.13381577 728.92008972 C-239.13369715 730.60652085 -239.13369715 730.60652085 -239.13357614 732.32702129 C-239.13243653 749.33819801 -239.13377291 766.34937339 -239.13629532 783.36054993 C-239.13914776 802.69438541 -239.13845435 822.02821708 -239.13301457 841.36205208 C-239.13006745 852.19527325 -239.12990215 863.02848619 -239.13366075 873.86170715 C-239.13589115 881.08406959 -239.13452945 888.30642539 -239.13015598 895.52878684 C-239.12776092 899.65303784 -239.12699726 903.77727241 -239.13056196 907.90152293 C-239.13376477 911.64494961 -239.1324602 915.38834513 -239.1273813 919.13176949 C-239.12588079 921.13001998 -239.12934087 923.12827227 -239.13293558 925.1265201 C-239.13043207 926.29387935 -239.12792855 927.4612386 -239.12534916 928.66397238 C-239.1252814 929.67809064 -239.12521365 930.6922089 -239.12514383 931.73705801 C-239.25408299 933.96824491 -239.25408299 933.96824491 -238 935 C-236.61020433 935.0996764 -235.21538515 935.13029682 -233.82202244 935.13307858 C-232.91558194 935.13731962 -232.00914144 935.14156067 -231.07523304 935.14593023 C-229.56417883 935.14535103 -229.56417883 935.14535103 -228.02259827 935.14476013 C-226.96143136 935.14828698 -225.90026445 935.15181382 -224.80694097 935.15544754 C-221.22163149 935.16619283 -217.63634852 935.16982556 -214.05102539 935.17358398 C-211.49257798 935.17988468 -208.93413169 935.18664993 -206.37568665 935.19384766 C-200.85194654 935.20854982 -195.32821186 935.22034225 -189.80446053 935.22979546 C-181.81577184 935.24364572 -173.82711502 935.26482982 -165.83844917 935.28822399 C-152.87578678 935.32616896 -139.91311863 935.36112886 -126.95043945 935.39282227 C-126.17396973 935.39472276 -125.39750002 935.39662325 -124.59750091 935.39858133 C-113.57565565 935.42541924 -102.55380593 935.44929029 -91.53195142 935.47196633 C-90.75578489 935.47356363 -89.97961837 935.47516094 -89.17993164 935.47680664 C-88.40470632 935.47840011 -87.629481 935.47999357 -86.830764 935.48163532 C-73.91917752 935.50837381 -61.00762497 935.54276094 -48.096075 935.58346039 C-40.1246036 935.60827834 -32.15316878 935.62658095 -24.18166482 935.636616 C-18.07850579 935.64485936 -11.97542286 935.66333376 -5.87229729 935.68567657 C-3.36239283 935.69318189 -0.85247545 935.69723491 1.65744019 935.69767189 C5.07026646 935.6987463 8.48283246 935.71192064 11.89561462 935.72825623 C12.90075338 935.72563937 13.90589213 935.72302252 14.94148964 935.72032636 C15.85053788 935.72717516 16.75958613 935.73402395 17.6961813 935.74108028 C18.87895646 935.74368466 18.87895646 935.74368466 20.08562607 935.74634165 C22 936 22 936 24 938 C24.25480902 939.92834866 24.25480902 939.92834866 24.26171303 942.33784676 C24.26917852 943.25447849 24.27664401 944.17111023 24.28433573 945.11551869 C24.28143363 946.63592285 24.28143363 946.63592285 24.2784729 948.18704224 C24.2842653 949.2586418 24.2900577 950.33024137 24.29602563 951.43431365 C24.31312054 955.04884968 24.31591028 958.66325876 24.31884766 962.27783203 C24.32813928 964.85937822 24.33830679 967.44092139 24.34928894 970.02246094 C24.37159509 975.59256574 24.38658814 981.16265206 24.39665604 986.7327919 C24.41122313 994.78633546 24.43675433 1002.83981467 24.46498732 1010.89332055 C24.51049123 1023.95864851 24.54709112 1037.02398572 24.578125 1050.08935547 C24.60829583 1062.78338241 24.64263932 1075.47738671 24.68261719 1088.17138672 C24.68630951 1089.34448781 24.68630951 1089.34448781 24.69007643 1090.54128791 C24.70245074 1094.46457353 24.71490733 1098.38785889 24.72740483 1102.31114411 C24.83102649 1134.8740654 24.92021193 1167.43701146 25 1200 C25.73163844 1199.99294767 26.46327689 1199.98589533 27.2170862 1199.97862929 C70.6317604 1199.56182125 114.04652368 1199.21365722 157.4624364 1198.95396845 C162.68166641 1198.92269099 167.90089279 1198.89084314 173.12011719 1198.85864258 C174.15912016 1198.85224193 175.19812312 1198.84584128 176.26861103 1198.83924667 C193.06660206 1198.73440611 209.86387471 1198.5834171 226.66133706 1198.41520824 C243.91201743 1198.24349435 261.16253516 1198.12175559 278.41390574 1198.04588252 C289.04938497 1197.99754728 299.68309709 1197.91078275 310.31781246 1197.77399049 C317.62200536 1197.68378194 324.92548828 1197.64235642 332.23023234 1197.6383123 C336.43814521 1197.63457218 340.64311583 1197.61027538 344.85028267 1197.52770424 C375.8234334 1196.9450509 375.8234334 1196.9450509 388.71247292 1208.82305622 C389.5516041 1209.64677642 389.5516041 1209.64677642 390.40768743 1210.48713744 C392.61923418 1212.58833688 395.06622906 1214.24249695 397.61328125 1215.91015625 C398.39413086 1216.43818848 399.17498047 1216.9662207 399.97949219 1217.51025391 C451.15576456 1251.55993366 508.95507084 1271.9136589 570.23828125 1277.48046875 C572.10033203 1277.73763672 572.10033203 1277.73763672 574 1278 C574.33 1278.66 574.66 1279.32 575 1280 C300.44 1280 25.88 1280 -257 1280 C-257 1279.34 -257 1278.68 -257 1278 C-258.27875 1277.87625 -259.5575 1277.7525 -260.875 1277.625 C-264.75 1277.25 -264.75 1277.25 -267 1275 C-268.64655265 1274.41870016 -270.31748168 1273.90459447 -272 1273.4375 C-276.8410596 1272.0794702 -276.8410596 1272.0794702 -279 1271 C-279 1270.34 -279 1269.68 -279 1269 C-279.721875 1268.938125 -280.44375 1268.87625 -281.1875 1268.8125 C-284.8711327 1267.74833944 -286.37943656 1265.75159161 -289 1263 C-289.78375 1262.54625 -290.5675 1262.0925 -291.375 1261.625 C-297.23861024 1257.99514604 -301.39709803 1252.8111322 -305 1247 C-305.46148437 1246.34386719 -305.92296875 1245.68773437 -306.3984375 1245.01171875 C-310.3802973 1239.32190385 -313.44273984 1233.45686951 -316 1227 C-316.51157929 1225.83591028 -317.02315858 1224.67182055 -317.55024028 1223.47245538 C-320.06680368 1215.78224406 -319.4074878 1207.47231921 -319.3719368 1199.47196388 C-319.3744604 1197.55912254 -319.37829994 1195.64628256 -319.38333416 1193.73344618 C-319.39337357 1188.46425516 -319.38468204 1183.19523471 -319.37299994 1177.92605318 C-319.36360049 1172.19852941 -319.37159444 1166.47102595 -319.37739825 1160.74350107 C-319.38516348 1150.70117094 -319.38175458 1140.65889245 -319.37107468 1130.6165657 C-319.35964767 1119.84200135 -319.35459846 1109.06746966 -319.35761642 1098.29290009 C-319.35780298 1097.61224932 -319.35798954 1096.93159855 -319.35818175 1096.23032201 C-319.35916214 1092.75964297 -319.36024695 1089.28896398 -319.36136696 1085.81828498 C-319.369245 1060.69934015 -319.36246439 1035.58041623 -319.34775543 1010.46147537 C-319.33321729 985.58358211 -319.32444851 960.7056984 -319.32357025 935.82780075 C-319.32350862 934.26607451 -319.32344691 932.70434828 -319.32338512 931.14262204 C-319.32314941 924.86692441 -319.32296358 918.59122678 -319.32283698 912.31552915 C-319.32247521 894.77241208 -319.32112713 877.22929516 -319.31907272 859.68617821 C-319.31893324 858.48785383 -319.31893324 858.48785383 -319.31879094 857.26532089 C-319.31417259 818.40327718 -319.29800987 779.54123925 -319.28125 740.67919922 C-319.25794192 686.63232316 -319.24378106 632.58545526 -319.24023438 578.53857422 C-319.24012199 576.8564192 -319.24000934 575.17426417 -319.23989645 573.49210915 C-319.23950299 567.61595855 -319.23911582 561.73980794 -319.23872932 555.86365734 C-319.23839923 550.84535778 -319.23806735 545.82705823 -319.23773346 540.80875868 C-319.237568 538.30663022 -319.23740586 535.80450176 -319.23724384 533.3023733 C-319.23381599 480.98920055 -319.22265959 428.67602924 -319.21000063 376.36285801 C-319.20605621 360.02879369 -319.20255752 343.69472947 -319.20018864 327.36066484 C-319.19539248 294.64023992 -319.18834257 261.91981986 -319.17204097 229.19939835 C-319.17067809 226.43916342 -319.16932814 223.67892848 -319.16798782 220.91869354 C-319.16765696 220.24126316 -319.1673261 219.56383278 -319.16698522 218.86587421 C-319.16213435 208.77306643 -319.16007321 198.68026081 -319.15958023 188.58745193 C-319.15903035 177.37295095 -319.15521288 166.15845766 -319.14680431 154.94395968 C-319.1426626 149.29101155 -319.14013191 143.63807478 -319.14191952 137.98512514 C-319.14350515 132.85234658 -319.1405652 127.71959218 -319.13386396 122.58681793 C-319.1322582 120.73215682 -319.13236016 118.87749334 -319.13429123 117.02283255 C-319.13665546 114.5212135 -319.13296055 112.01967689 -319.1276505 109.51806414 C-319.13088221 108.42735892 -319.13088221 108.42735892 -319.1341792 107.31461925 C-319.12188428 104.26138692 -318.97393838 101.92181514 -318 99 C-317.4678644 96.9403871 -316.94820656 94.87753085 -316.4375 92.8125 C-316.16808594 91.72582031 -315.89867187 90.63914062 -315.62109375 89.51953125 C-315.41613281 88.68808594 -315.21117187 87.85664062 -315 87 C-314.34 87 -313.68 87 -313 87 C-312.5978125 85.453125 -312.5978125 85.453125 -312.1875 83.875 C-310.3484238 77.54040421 -307.64824311 73.64824311 -303 69 C-302.649375 68.113125 -302.29875 67.22625 -301.9375 66.3125 C-300.76626162 63.42344533 -299.73227373 63.28075331 -297 62 C-296.71125 61.360625 -296.4225 60.72125 -296.125 60.0625 C-294.48620587 57.0580441 -292.03303979 56.48678421 -289 55 C-288.154375 54.154375 -287.30875 53.30875 -286.4375 52.4375 C-283.87537241 49.87537241 -282.33775983 49.23299642 -279 48 C-277.0828317 47.18868436 -275.16619114 46.37612084 -273.25 45.5625 C-261.77483197 40.79524269 -251.96897754 38.84163515 -239.54699707 38.87974548 C-238.51927358 38.87889106 -237.49155009 38.87803663 -236.43268347 38.87715632 C-233.0026304 38.87551441 -229.57262666 38.88100175 -226.14257812 38.88647461 C-223.67837526 38.88675679 -221.2141723 38.88659815 -218.74996948 38.8860321 C-213.45169953 38.88580468 -208.15344481 38.88863383 -202.85517883 38.89426994 C-195.19487365 38.90241339 -187.53457441 38.90500308 -179.87426537 38.90625793 C-167.44449384 38.90844399 -155.0147289 38.91509196 -142.58496094 38.92456055 C-130.51399773 38.93374622 -118.44303631 38.9408214 -106.37207031 38.94506836 C-105.25509965 38.94546244 -105.25509965 38.94546244 -104.11556393 38.94586449 C-100.3797112 38.94716957 -96.64385846 38.94843327 -92.90800571 38.94967639 C-61.93866554 38.9600351 -30.96933413 38.97791739 0 39 C0 26.13 0 13.26 0 0 Z M-308 75 C-307 77 -307 77 -307 77 Z " fill="#E9CD97" transform="translate(319,0)"/>
<path d="M0 0 C132.66 0 265.32 0 402 0 C402.33 13.2 402.66 26.4 403 40 C402.34 40 401.68 40 401 40 C401.00222061 40.90152298 401.00444122 41.80304596 401.00672913 42.73188782 C401.18682041 119.4643021 401.18682041 119.4643021 400.79147339 147.42001343 C400.76421319 149.48555038 400.74329255 151.55118252 400.72927856 153.61685181 C400.54959024 177.69832759 394.80579706 198.09033691 378 216 C374.49887374 219.25642389 370.84792071 222.16724952 367 225 C366.42121094 225.47695312 365.84242188 225.95390625 365.24609375 226.4453125 C348.47419983 239.81238585 326.85976262 239.4449602 306.62963867 239.40405273 C304.07390546 239.40976278 301.5181748 239.41672948 298.96244812 239.42485046 C292.76896265 239.44087571 286.5756147 239.44289655 280.38211485 239.43763756 C275.34206205 239.43357804 270.30203909 239.43506044 265.26198769 239.44038582 C264.18147844 239.44150845 264.18147844 239.44150845 263.07914073 239.44265376 C261.61524563 239.44418542 260.15135054 239.44572377 258.68745545 239.44726873 C244.99239944 239.46096268 231.29740072 239.45557821 217.60234604 239.44408352 C205.10840151 239.43415648 192.61460519 239.44708816 180.12068351 239.47101771 C167.25269164 239.4954756 154.3847686 239.50500008 141.51675397 239.49836498 C134.30806849 239.4948873 127.09949683 239.49700802 119.89082909 239.51461601 C113.10841383 239.53097912 106.32632479 239.52605292 99.54390144 239.50731087 C97.06607998 239.50364398 94.58823733 239.5066774 92.11043549 239.51719666 C67.33279875 239.61429212 47.83454095 235.93364787 28 220 C27.15824219 219.34644531 26.31648438 218.69289062 25.44921875 218.01953125 C9.63441983 204.91021892 2.27259526 186.02396658 0 166 C-0.47459737 159.55191599 -0.5683154 153.08735342 -0.6875 146.625 C-0.708125 145.66719635 -0.72875 144.7093927 -0.75 143.7225647 C-1.26469722 118.86706198 -0.79230412 94.00482844 -0.36394787 69.1510973 C-0.30606217 65.77087621 -0.25146053 62.39060504 -0.19693565 59.01032829 C-0.15693842 56.64615999 -0.11095204 54.28215809 -0.06465149 51.91810608 C-0.04088267 50.49252759 -0.0173642 49.0669449 0.00585938 47.64135742 C0.02886108 46.40189865 0.05186279 45.16243988 0.07556152 43.88542175 C0.20538427 41.05773047 0.20538427 41.05773047 -1 39 C-0.67 26.13 -0.34 13.26 0 0 Z " fill="#E46E54" transform="translate(319,0)"/>
<path d="M0 0 C1.11565123 0.00008252 1.11565123 0.00008252 2.25384086 0.00016671 C3.11404573 -0.00703983 3.97425059 -0.01424637 4.86052227 -0.0216713 C6.27877903 -0.01060987 6.27877903 -0.01060987 7.72568744 0.00067502 C8.72983249 -0.00329938 9.73397754 -0.00727379 10.76855123 -0.01136863 C14.14946041 -0.02102968 17.52995509 -0.00915008 20.91085285 0.00258237 C23.32853836 0.00015556 25.74622288 -0.00356268 28.16390461 -0.00848025 C34.06043578 -0.01693069 39.95685565 -0.01135652 45.85337121 0.00078269 C52.72376995 0.01439949 59.59413954 0.0127649 66.46454834 0.01064936 C78.73036632 0.00745727 90.9961263 0.0191364 103.26192707 0.03871518 C115.15322111 0.05769112 127.04444709 0.0648106 138.93575519 0.059223 C151.8855563 0.05315601 164.83532745 0.05336134 177.78512609 0.06470883 C179.16815986 0.06591608 180.55119363 0.06712207 181.93422741 0.06832677 C182.95489213 0.06923208 182.95489213 0.06923208 183.99617635 0.07015568 C188.77950177 0.07402647 193.56281601 0.07364434 198.34614223 0.07174093 C204.79671937 0.06938867 211.24722821 0.0779988 217.69778675 0.09380132 C220.0624319 0.09803448 222.42708591 0.09890126 224.79173321 0.09611112 C228.02648581 0.09287423 231.26098084 0.10200947 234.49570698 0.11420041 C235.89054116 0.10853143 235.89054116 0.10853143 237.31355381 0.10274792 C243.43768968 0.14340678 249.09711329 0.98056855 255.05513996 2.37489682 C256.05545246 2.59790464 257.05576496 2.82091245 258.08638996 3.05067807 C264.54630144 4.71676284 270.21112634 7.16766159 276.05513996 10.37489682 C276.05513996 11.03489682 276.05513996 11.69489682 276.05513996 12.37489682 C277.13795246 12.46770932 277.13795246 12.46770932 278.24263996 12.56239682 C281.92627266 13.62655738 283.43457652 15.62330521 286.05513996 18.37489682 C286.90076496 18.86989682 287.74638996 19.36489682 288.61763996 19.87489682 C291.48526627 21.63958994 293.01484636 23.72251515 295.05513996 26.37489682 C296.04513996 27.03489682 297.03513996 27.69489682 298.05513996 28.37489682 C299.08125945 30.02561078 300.07822139 31.69459688 301.05513996 33.37489682 C301.77701496 34.24114682 302.49888996 35.10739682 303.24263996 35.99989682 C305.05513996 38.37489682 305.05513996 38.37489682 305.05513996 41.37489682 C305.71513996 41.37489682 306.37513996 41.37489682 307.05513996 41.37489682 C308.94368722 45.66704968 310.62457086 49.90436839 312.05513996 54.37489682 C312.29964638 55.02601873 312.5441528 55.67714064 312.79606851 56.34799352 C314.74507385 61.6870931 315.48443335 66.27152602 315.42428344 71.93181306 C315.42774498 72.74755191 315.43120651 73.56329075 315.43477294 74.40374896 C315.44268474 77.12467176 315.42927942 79.84505704 315.41590351 82.56595212 C315.4172124 84.54125066 315.41984035 86.51654868 315.42367101 88.49184394 C315.43037151 93.91012746 315.41838917 99.3282327 315.40333682 104.74649352 C315.39037452 110.5930156 315.39476606 116.43952774 315.39704365 122.28606015 C315.39861625 132.41237182 315.3892083 142.53862546 315.37233013 152.66492254 C315.34794307 167.30581538 315.34012513 181.94668882 315.33636615 196.5875982 C315.33006804 220.34182741 315.30986467 244.09602642 315.28145832 267.85023862 C315.25389702 290.92445574 315.2326501 313.99866459 315.21993488 337.07289487 C315.21934301 338.14011627 315.21934301 338.14011627 315.21873919 339.2288977 C315.21478357 346.37400283 315.21095613 353.51910802 315.20722261 360.66421326 C315.19961435 375.2190963 315.19115059 389.7739788 315.18216938 404.32886106 C315.18175751 404.99804366 315.18134564 405.66722627 315.18092129 406.35668714 C315.15332796 451.02943636 315.1057309 495.70216845 315.05513996 540.37489682 C313.61252687 540.05865324 312.17017326 539.74122583 310.72793049 539.4232977 C309.92469223 539.24665712 309.12145397 539.07001653 308.29387516 538.8880232 C305.80514502 538.31759706 303.38006556 537.62879875 300.94576496 536.85927182 C281.00541585 530.71490321 260.55703531 525.67581971 239.73092121 523.79677182 C237.05513996 523.37489682 237.05513996 523.37489682 235.05513996 521.37489682 C234.85507145 518.96466714 234.78086465 516.66883789 234.79342693 514.2571581 C234.78943087 513.51196599 234.78543481 512.76677388 234.78131765 511.99900019 C234.77025834 509.47602998 234.77355652 506.95327599 234.77666706 504.43028623 C234.77166901 502.61364541 234.76579467 500.79700683 234.75911433 498.98037142 C234.74324087 493.96818637 234.73987963 488.95605725 234.73846573 483.9438501 C234.73478443 478.54640876 234.71963541 473.14899857 234.70585102 467.75157529 C234.68353425 458.3934637 234.66854759 449.03536313 234.65848392 439.67723066 C234.6439229 426.14680284 234.6183934 412.61641339 234.59015264 399.08600803 C234.54463767 377.13592771 234.50804236 355.18584189 234.47701496 333.23573667 C234.44684865 311.90825194 234.41248437 290.58078352 234.37252277 269.25331479 C234.37001607 267.91274375 234.3675095 266.5721727 234.36500305 265.23160166 C234.34557662 254.85290758 234.32588138 244.47421401 234.30612129 234.09552056 C234.20926183 183.18866243 234.13370636 132.28179282 234.05513996 81.37489682 C155.18513996 81.04489682 76.31513996 80.71489682 -4.94486004 80.37489682 C-4.94486004 54.96489682 -4.94486004 29.55489682 -4.94486004 3.37489682 C-1.94486004 0.37489682 -1.94486004 0.37489682 0 0 Z M302.05513996 37.37489682 C303.05513996 39.37489682 303.05513996 39.37489682 303.05513996 39.37489682 Z " fill="#E9CD97" transform="translate(723.9448600411415,38.625103175640106)"/>
<path d="M0 0 C33.21585309 0.08170002 66.43165843 0.17383812 99.64744189 0.28005161 C103.56541675 0.29257106 107.48339188 0.30500375 111.40136719 0.31738281 C112.57140594 0.3210818 112.57140594 0.3210818 113.76508184 0.32485552 C126.40901147 0.36462126 139.05295009 0.39735168 151.6969059 0.42749982 C164.66270491 0.45857129 177.62846567 0.49716209 190.59422171 0.54279006 C198.60017097 0.57072518 206.60609213 0.59273633 214.61207713 0.60726251 C220.74242893 0.61901247 226.87270167 0.64120434 233.00300789 0.66738319 C235.52419722 0.67649236 238.04540157 0.68215691 240.56660652 0.68421364 C243.99481895 0.68751269 247.42276326 0.70292572 250.85092163 0.7215271 C251.86063345 0.71959237 252.87034528 0.71765763 253.91065443 0.71566427 C254.82380277 0.72312976 255.73695111 0.73059525 256.67777061 0.73828697 C257.86591553 0.74170446 257.86591553 0.74170446 259.07806337 0.74519098 C261 1 261 1 263 3 C263.24839699 4.90911257 263.24839699 4.90911257 263.24609566 7.29099464 C263.25007775 8.1971762 263.25405985 9.10335775 263.25816262 10.03699934 C263.25233693 11.03892927 263.24651125 12.0408592 263.24050903 13.07315063 C263.24307231 14.662174 263.24307231 14.662174 263.24568737 16.28329885 C263.2489989 19.85641376 263.23795121 23.4293436 263.22705078 27.00244141 C263.22648703 29.55442806 263.22680253 32.10641503 263.22793579 34.65840149 C263.2283922 40.16469327 263.22269528 45.67092475 263.21146011 51.17720413 C263.1952264 59.13840914 263.1899993 67.09959121 263.18748413 75.06081097 C263.18310368 87.97642601 263.16978509 100.89201584 263.15087891 113.80761719 C263.13252916 126.35611851 263.11836823 138.90461298 263.10986328 151.453125 C263.10933783 152.22623141 263.10881239 152.99933782 263.10827102 153.79587169 C263.105661 157.67420483 263.10313357 161.55253802 263.10064721 165.43087125 C263.0799038 197.62059916 263.04466876 229.81029609 263 262 C258.85782035 260.62571133 256.42890872 258.8038551 253.35547924 255.73020935 C252.44680794 254.82874459 251.53813664 253.92727983 250.60192984 252.99849796 C249.60250002 251.99189125 248.6032117 250.98514402 247.60404968 249.97827148 C246.53617202 248.91313414 245.46763928 247.84865322 244.39850837 246.78477383 C241.46141452 243.85827938 238.53377131 240.92248644 235.60758054 237.9850955 C232.45079264 234.81947562 229.28538356 231.66249703 226.12104797 228.50442505 C219.92376757 222.31663969 213.73457011 216.12082959 207.54811206 209.92222619 C200.34905455 202.70956107 193.14238805 195.50451888 185.93546603 188.29971349 C173.08180186 175.44924009 160.23558433 162.59134776 147.39331055 149.72949219 C134.91990333 137.23707051 122.44054042 124.75063699 109.95483398 112.27050781 C96.36833052 98.69005535 82.78493822 85.10650602 69.20715076 71.51733875 C67.76085623 70.06983689 66.31456104 68.62233571 64.86826515 67.17483521 C64.15659964 66.46256616 63.44493413 65.75029711 62.711703 65.01644415 C57.68538757 59.98624204 52.65692946 54.95818793 47.62772179 49.93087769 C41.5046903 43.8099632 35.38532241 37.68541362 29.27062788 31.55617023 C26.14810839 28.42638291 23.02399225 25.29823387 19.89556503 22.17435074 C17.03624824 19.31908638 14.18153703 16.45930264 11.33055601 13.59571564 C10.29410284 12.55631513 9.25593183 11.51862444 8.21595093 10.48275363 C6.81115922 9.08301393 5.41302484 7.67660206 4.01531506 6.26979065 C3.23428266 5.48789147 2.45325026 4.7059923 1.64855021 3.90039921 C0 2 0 2 0 0 Z " fill="#E56F55" transform="translate(80,935)"/>
<path d="M0 0 C9.55447358 5.22791951 16.58705033 14.04938731 20.14453125 24.296875 C22.55877172 34.74755977 22.19898935 46.47877393 17 56 C11.07807178 65.37382939 2.38799899 71.94809164 -6.203125 78.73828125 C-9.5045759 81.40802995 -12.72297015 84.1642398 -15.9375 86.9375 C-20.97434216 91.28196249 -26.06876279 95.53907288 -31.234375 99.73046875 C-34.29367534 102.24099629 -37.30319038 104.80505499 -40.3125 107.375 C-44.84902615 111.2453467 -49.47499517 114.97138432 -54.1875 118.625 C-59.20892945 122.52047442 -63.97390064 126.59614897 -68.65625 130.8984375 C-71.74630215 133.66918426 -74.99038661 136.21430446 -78.25 138.78125 C-81.48055588 141.38772122 -84.61386489 144.09388233 -87.75 146.8125 C-92.482595 150.91020315 -97.29976119 154.85579876 -102.25 158.6875 C-107.25117062 162.5596853 -111.9918152 166.61290746 -116.65234375 170.89453125 C-119.77050492 173.69101855 -123.04064744 176.26614736 -126.328125 178.859375 C-129.28541342 181.22866456 -132.1784175 183.66781292 -135.0625 186.125 C-140.1655303 190.46973025 -145.31922702 194.74830884 -150.5 199 C-155.53161933 203.13042545 -160.54237261 207.28100902 -165.5 211.5 C-171.18125737 216.33480741 -176.93722445 221.07523922 -182.703125 225.80859375 C-186.99807873 229.33879852 -191.26587717 232.89711721 -195.5 236.5 C-202.64337345 242.5730013 -209.87145758 248.54081853 -217.13671875 254.46728516 C-218.74135071 255.78723791 -220.32584566 257.13160214 -221.90625 258.48046875 C-222.6796875 259.12628906 -223.453125 259.77210938 -224.25 260.4375 C-224.87390625 260.97246094 -225.4978125 261.50742188 -226.140625 262.05859375 C-228.77587955 263.39282977 -230.20076088 262.8041848 -233 262 C-234.83225155 260.67669964 -234.83225155 260.67669964 -236.56004333 258.96134949 C-237.22296387 258.31259857 -237.8858844 257.66384766 -238.56889343 256.99543762 C-239.28019913 256.27917709 -239.99150482 255.56291656 -240.72436523 254.82495117 C-241.48598969 254.07354858 -242.24761414 253.322146 -243.03231812 252.54797363 C-245.55152906 250.05659735 -248.05556727 247.55059774 -250.55859375 245.04296875 C-252.30783377 243.30150439 -254.05751987 241.56048799 -255.80763245 239.81990051 C-259.4786349 236.16383469 -263.14177243 232.5000966 -266.80004883 228.83129883 C-271.47140241 224.14839854 -276.16498537 219.48852515 -280.86530972 214.83472729 C-284.48854597 211.24108345 -288.09769601 207.63354236 -291.70305061 204.02196693 C-293.42660476 202.29943476 -295.15484924 200.58158171 -296.88796806 198.86867332 C-318.90920612 177.07273108 -318.90920612 177.07273108 -319.375 160.125 C-319.408606 148.19779391 -315.61433658 138.68310077 -307.28125 130.0859375 C-298.48632431 122.04400202 -288.96626374 118.18799111 -276.95727539 118.41333008 C-258.11034182 119.47311551 -247.30283685 133.52448744 -234.97265625 146.15429688 C-233.70615234 147.43723633 -233.70615234 147.43723633 -232.4140625 148.74609375 C-231.6607666 149.51622803 -230.9074707 150.2863623 -230.13134766 151.07983398 C-228.14594021 152.86852007 -226.44355975 153.95953212 -224 155 C-223.25878906 154.36835937 -222.51757812 153.73671875 -221.75390625 153.0859375 C-214.66260646 147.05741649 -207.50838971 141.11109751 -200.31420898 135.20581055 C-195.3487214 131.12471823 -190.4272674 126.99604605 -185.53125 122.83203125 C-181.33630747 119.26949212 -177.08067956 115.78659964 -172.8125 112.3125 C-169.68200334 109.73853608 -166.58827539 107.12430914 -163.5 104.5 C-158.65040619 100.37898366 -153.74839194 96.33008646 -148.8125 92.3125 C-145.68200334 89.73853608 -142.58827539 87.12430914 -139.5 84.5 C-134.65040619 80.37898366 -129.74839194 76.33008646 -124.8125 72.3125 C-121.68200334 69.73853608 -118.58827539 67.12430914 -115.5 64.5 C-110.65040619 60.37898366 -105.74839194 56.33008646 -100.8125 52.3125 C-97.68200334 49.73853608 -94.58827539 47.12430914 -91.5 44.5 C-86.65040619 40.37898366 -81.74839194 36.33008646 -76.8125 32.3125 C-73.68200056 29.73853379 -70.58837781 27.12419186 -67.5 24.5 C-62.57994188 20.32204521 -57.63076942 16.18520608 -52.609375 12.12890625 C-50.88949805 10.72571323 -49.19065565 9.29627764 -47.515625 7.83984375 C-33.42842414 -4.1611952 -17.13343726 -7.47970297 0 0 Z " fill="#FBFDFD" transform="translate(1067,809)"/>
<path d="M0 0 C1.39711728 -0.00389896 2.79423058 -0.00954416 4.19133461 -0.0167709 C8.00717118 -0.03145789 11.82259223 -0.021385 15.6384151 -0.00703418 C19.76251374 0.00411022 23.88655573 -0.00787834 28.01065063 -0.01687622 C36.07996534 -0.0307864 44.14912322 -0.02326931 52.21843041 -0.00820064 C61.61926816 0.00868455 71.02006712 0.0054461 80.42091535 0.00170528 C97.19518249 -0.00416906 113.96937449 0.00998243 130.74362183 0.03465271 C147.0144838 0.05857989 163.28524542 0.06565344 179.55612183 0.05516052 C197.28421596 0.04374831 215.01226371 0.04182441 232.74035728 0.05625862 C234.63102142 0.05778443 236.52168556 0.05930478 238.4123497 0.06081963 C239.80764025 0.06195635 239.80764025 0.06195635 241.23111848 0.06311603 C247.78178299 0.06785591 254.33242678 0.06600958 260.88309097 0.06175423 C268.8661032 0.056825 276.8490206 0.06282362 284.83201112 0.08264852 C288.90390303 0.09251197 292.97565062 0.09763584 297.0475502 0.08975601 C300.77689851 0.08268676 304.50595593 0.08953267 308.23526596 0.10735964 C310.21915861 0.11330422 312.20307857 0.10459177 314.18695843 0.09531313 C325.78626047 0.17777743 334.33082818 3.38891149 342.96871948 11.28245544 C351.95145486 20.79129463 354.54044123 31.7174695 354.28903198 44.38792419 C353.7702594 55.53770146 348.01831569 63.79681086 340.10934448 71.31761169 C330.85468852 78.89996842 320.5808548 80.09106059 308.98362732 80.01586914 C307.59262084 80.0212044 306.20162014 80.02827569 304.81063026 80.0369162 C301.01619436 80.05544094 297.22215146 80.04927406 293.42769992 80.03876317 C289.3246603 80.03174206 285.22169906 80.04779106 281.11868286 80.0607605 C273.09162481 80.0823571 265.06470876 80.08228479 257.03763122 80.07413495 C250.51099925 80.06782475 243.98440857 80.06898134 237.45777702 80.07540703 C236.52743535 80.07630868 235.59709368 80.07721034 234.63855983 80.07813932 C232.74833647 80.07999059 230.85811312 80.08185316 228.96788978 80.08372688 C211.25898146 80.10029019 193.55015291 80.0915986 175.8412494 80.0747413 C159.65457015 80.06004538 143.46807654 80.07467382 127.28142119 80.10351146 C110.64269218 80.13293274 94.00404876 80.14386979 77.36529487 80.13432926 C75.48187667 80.13330675 73.59845844 80.13231214 71.71504021 80.13134575 C70.32518258 80.13063116 70.32518258 80.13063116 68.90724703 80.12990214 C62.39248805 80.12774164 55.87781047 80.13752269 49.36306953 80.15211678 C41.41784858 80.16966779 33.47286423 80.16948308 25.52765245 80.14676512 C21.47743654 80.13564806 17.42763707 80.13240239 13.3774395 80.15106583 C9.66317625 80.16796045 5.94968975 80.16139997 2.23547601 80.13684904 C0.26948517 80.12971088 -1.69654868 80.14692161 -3.66246694 80.16526037 C-15.92496316 80.03736491 -26.0713249 76.00300206 -34.98049927 67.50120544 C-42.97403641 58.91754139 -45.64429514 49.85077499 -45.51687622 38.32591248 C-45.04260989 27.08170195 -41.11490116 18.55702467 -33.23440552 10.52073669 C-30.20930718 7.81020664 -27.69507716 6.19557431 -23.98049927 4.50120544 C-23.30601277 4.16590205 -22.63152628 3.83059865 -21.9366008 3.48513454 C-14.60200007 0.13070194 -7.97808283 -0.05984087 0 0 Z " fill="#71949D" transform="translate(444.9804992675781,319.49879455566406)"/>
<path d="M0 0 C1.58468435 -0.0083016 1.58468435 -0.0083016 3.20138252 -0.0167709 C6.71733413 -0.03031016 10.23256759 -0.01544426 13.74850464 -0.00050354 C16.27884217 -0.00428909 18.80917762 -0.00979108 21.33950806 -0.01687622 C27.48378278 -0.02937003 33.62779411 -0.02328517 39.77205552 -0.00820064 C46.93397242 0.00870937 54.09583863 0.00544301 61.25776933 0.00170528 C74.03890236 -0.00416516 86.81993668 0.00996731 99.6010437 0.03465271 C111.99170631 0.05858116 124.38223713 0.06565202 136.7729187 0.05516052 C150.28200069 0.04374247 163.79102181 0.04183143 177.30010307 0.05625862 C178.74140858 0.05778439 180.1827141 0.05930474 181.62401962 0.06081963 C182.3330845 0.06157744 183.04214937 0.06233525 183.77270106 0.06311603 C188.76043466 0.06785121 193.748141 0.06601294 198.73587418 0.06175423 C205.45169726 0.05630357 212.16731129 0.06710301 218.88311005 0.08870888 C221.34696462 0.09427096 223.81083674 0.09474737 226.27469254 0.08975601 C229.63905949 0.08379528 233.00287059 0.09632418 236.3671875 0.11352539 C237.34092823 0.10751535 238.31466896 0.1015053 239.31791699 0.09531313 C249.87779539 0.19341656 258.22550503 4.17258036 266.00582886 11.28245544 C274.98856424 20.79129463 277.5775506 31.7174695 277.32614136 44.38792419 C276.80736877 55.53770146 271.05542506 63.79681086 263.14645386 71.31761169 C254.92447281 78.05389596 245.45828073 80.10517138 235.05784607 80.01586914 C234.00744123 80.02281467 232.95703639 80.0297602 231.8748011 80.0369162 C228.38513383 80.05508732 224.89615401 80.04494916 221.40646362 80.03465271 C218.89231867 80.04171613 216.37817797 80.05046292 213.86404419 80.0607605 C207.76202769 80.08088777 201.66026165 80.08229411 195.55822486 80.07413495 C190.59528063 80.06781645 185.63239064 80.06898888 180.66944695 80.07540703 C179.96113417 80.07630868 179.2528214 80.07721034 178.5230446 80.07813932 C177.08378123 80.07999066 175.64451788 80.08185322 174.20525455 80.08372688 C160.73114721 80.10027775 147.2571448 80.09160929 133.78304379 80.0747413 C121.47625838 80.06004673 109.16971718 80.07467401 96.86296321 80.10351146 C84.20187149 80.13295647 71.54089227 80.1438629 58.87976784 80.13432926 C57.44570825 80.13330679 56.01164865 80.13231218 54.57758904 80.13134575 C53.51942464 80.13063116 53.51942464 80.13063116 52.43988319 80.12990214 C47.48804678 80.12774474 42.53631771 80.13750601 37.58450508 80.15211678 C30.90877924 80.17154073 24.23357767 80.1644745 17.55784607 80.13991737 C15.11340497 80.1349201 12.66892916 80.13837088 10.22451591 80.15106583 C-6.44600586 80.23076902 -19.27543467 79.58991023 -31.94338989 67.50120544 C-39.93692704 58.91754139 -42.60718576 49.85077499 -42.47976685 38.32591248 C-42.00550052 27.08170195 -38.07779178 18.55702467 -30.19729614 10.52073669 C-27.1721978 7.81020664 -24.65796778 6.19557431 -20.94338989 4.50120544 C-20.23366819 4.16590205 -19.52394648 3.83059865 -18.79271805 3.48513454 C-12.36748841 0.64878766 -6.97651472 -0.06913329 0 0 Z " fill="#71949E" transform="translate(441.9433898925781,479.49879455566406)"/>
<path d="M0 0 C1.41668976 -0.00810448 1.41668976 -0.00810448 2.86199951 -0.01637268 C5.95113484 -0.0287728 9.03932231 -0.01242956 12.12841797 0.00561523 C14.29214527 0.00546007 16.45587285 0.0039682 18.61959839 0.00120544 C23.14007958 -0.00017456 27.66024195 0.01231494 32.18066406 0.03515625 C37.96188428 0.06357345 43.74257664 0.06078879 49.52383614 0.04806614 C53.98664831 0.04109791 58.44933938 0.04891081 62.91213608 0.06132317 C65.04349172 0.06582411 67.17486042 0.06618638 69.30621719 0.06225777 C72.28774759 0.05933346 75.2685605 0.07590987 78.25 0.09765625 C79.55784958 0.09090378 79.55784958 0.09090378 80.89212036 0.08401489 C91.13084898 0.20751604 99.43266536 4.41814047 106.94482422 11.28295898 C115.9275596 20.79179817 118.51654597 31.71797304 118.26513672 44.38842773 C117.74636413 55.538205 111.99442042 63.7973144 104.08544922 71.31811523 C92.5290008 80.78633478 79.26797294 80.1105809 65.12451172 80.06811523 C62.99421417 80.07335889 60.86391895 80.07963807 58.73362732 80.0868988 C54.28299991 80.09726937 49.83269291 80.09278962 45.38208008 80.078125 C39.70532375 80.06094243 34.02958017 80.08444441 28.35293674 80.1196146 C23.95771193 80.14167392 19.56272627 80.14012647 15.1674633 80.13184929 C13.07568183 80.13103445 10.98388197 80.13780752 8.89215279 80.15262032 C-6.74879022 80.24642251 -19.16896193 78.79595878 -31.00439453 67.50170898 C-38.99793168 58.91804493 -41.6681904 49.85127853 -41.54077148 38.32641602 C-41.06650516 27.08220549 -37.13879642 18.55752821 -29.25830078 10.52124023 C-26.23320244 7.81071018 -23.71897242 6.19607785 -20.00439453 4.50170898 C-19.28377901 4.16641143 -18.56316349 3.83111387 -17.82071114 3.48565578 C-11.70315706 0.81389058 -6.63898009 -0.07395905 0 0 Z " fill="#71949E" transform="translate(441.00439453125,639.498291015625)"/>
<path d="M0 0 C10.15266151 -0.02312392 20.3053168 -0.04091534 30.45799923 -0.05181217 C35.17179733 -0.05704089 39.88557747 -0.06413834 44.59936523 -0.07543945 C49.14455404 -0.08626873 53.68972552 -0.09227692 58.23492622 -0.09487724 C59.97294958 -0.09673142 61.71097194 -0.10035189 63.44898796 -0.10573006 C65.87478595 -0.11294103 68.30051146 -0.11399092 70.72631836 -0.11352539 C71.45208069 -0.11712067 72.17784302 -0.12071594 72.92559814 -0.12442017 C77.88594784 -0.11405216 77.88594784 -0.11405216 79 1 C79.09498646 3.43396019 79.12558417 5.83942952 79.11352539 8.27368164 C79.11367142 9.03460617 79.11381744 9.7955307 79.1139679 10.57951355 C79.11326862 13.10642298 79.10547555 15.63325962 79.09765625 18.16015625 C79.09579212 19.9075059 79.0943682 21.65485607 79.09336853 23.40220642 C79.08954293 28.01031934 79.07971229 32.61840095 79.06866455 37.22650146 C79.05845134 41.92508521 79.0538711 46.62367399 79.04882812 51.32226562 C79.03809005 60.54819087 79.02101313 69.77409284 79 79 C68.84733849 79.02312392 58.6946832 79.04091534 48.54200077 79.05181217 C43.82820267 79.05704089 39.11442253 79.06413834 34.40063477 79.07543945 C29.85544596 79.08626873 25.31027448 79.09227692 20.76507378 79.09487724 C19.02705042 79.09673142 17.28902806 79.10035189 15.55101204 79.10573006 C13.12521405 79.11294103 10.69948854 79.11399092 8.27368164 79.11352539 C7.54791931 79.11712067 6.82215698 79.12071594 6.07440186 79.12442017 C1.11405216 79.11405216 1.11405216 79.11405216 0 78 C-0.09498646 75.56603981 -0.12558417 73.16057048 -0.11352539 70.72631836 C-0.11367142 69.96539383 -0.11381744 69.2044693 -0.1139679 68.42048645 C-0.11326862 65.89357702 -0.10547555 63.36674038 -0.09765625 60.83984375 C-0.09579212 59.0924941 -0.0943682 57.34514393 -0.09336853 55.59779358 C-0.08954293 50.98968066 -0.07971229 46.38159905 -0.06866455 41.77349854 C-0.05845134 37.07491479 -0.0538711 32.37632601 -0.04882812 27.67773438 C-0.03809005 18.45180913 -0.02101313 9.22590716 0 0 Z " fill="#71949E" transform="translate(240,800)"/>
<path d="M0 0 C10.15266151 -0.02312392 20.3053168 -0.04091534 30.45799923 -0.05181217 C35.17179733 -0.05704089 39.88557747 -0.06413834 44.59936523 -0.07543945 C49.14455404 -0.08626873 53.68972552 -0.09227692 58.23492622 -0.09487724 C59.97294958 -0.09673142 61.71097194 -0.10035189 63.44898796 -0.10573006 C65.87478595 -0.11294103 68.30051146 -0.11399092 70.72631836 -0.11352539 C71.45208069 -0.11712067 72.17784302 -0.12071594 72.92559814 -0.12442017 C77.88594784 -0.11405216 77.88594784 -0.11405216 79 1 C79.09498646 3.43396019 79.12558417 5.83942952 79.11352539 8.27368164 C79.11367142 9.03460617 79.11381744 9.7955307 79.1139679 10.57951355 C79.11326862 13.10642298 79.10547555 15.63325962 79.09765625 18.16015625 C79.09579212 19.9075059 79.0943682 21.65485607 79.09336853 23.40220642 C79.08954293 28.01031934 79.07971229 32.61840095 79.06866455 37.22650146 C79.05845134 41.92508521 79.0538711 46.62367399 79.04882812 51.32226562 C79.03809005 60.54819087 79.02101313 69.77409284 79 79 C68.84733849 79.02312392 58.6946832 79.04091534 48.54200077 79.05181217 C43.82820267 79.05704089 39.11442253 79.06413834 34.40063477 79.07543945 C29.85544596 79.08626873 25.31027448 79.09227692 20.76507378 79.09487724 C19.02705042 79.09673142 17.28902806 79.10035189 15.55101204 79.10573006 C13.12521405 79.11294103 10.69948854 79.11399092 8.27368164 79.11352539 C7.54791931 79.11712067 6.82215698 79.12071594 6.07440186 79.12442017 C1.11405216 79.11405216 1.11405216 79.11405216 0 78 C-0.09498646 75.56603981 -0.12558417 73.16057048 -0.11352539 70.72631836 C-0.11367142 69.96539383 -0.11381744 69.2044693 -0.1139679 68.42048645 C-0.11326862 65.89357702 -0.10547555 63.36674038 -0.09765625 60.83984375 C-0.09579212 59.0924941 -0.0943682 57.34514393 -0.09336853 55.59779358 C-0.08954293 50.98968066 -0.07971229 46.38159905 -0.06866455 41.77349854 C-0.05845134 37.07491479 -0.0538711 32.37632601 -0.04882812 27.67773438 C-0.03809005 18.45180913 -0.02101313 9.22590716 0 0 Z " fill="#71949E" transform="translate(240,640)"/>
<path d="M0 0 C10.15266151 -0.02312392 20.3053168 -0.04091534 30.45799923 -0.05181217 C35.17179733 -0.05704089 39.88557747 -0.06413834 44.59936523 -0.07543945 C49.14455404 -0.08626873 53.68972552 -0.09227692 58.23492622 -0.09487724 C59.97294958 -0.09673142 61.71097194 -0.10035189 63.44898796 -0.10573006 C65.87478595 -0.11294103 68.30051146 -0.11399092 70.72631836 -0.11352539 C71.45208069 -0.11712067 72.17784302 -0.12071594 72.92559814 -0.12442017 C77.88594784 -0.11405216 77.88594784 -0.11405216 79 1 C79.09498646 3.43396019 79.12558417 5.83942952 79.11352539 8.27368164 C79.11367142 9.03460617 79.11381744 9.7955307 79.1139679 10.57951355 C79.11326862 13.10642298 79.10547555 15.63325962 79.09765625 18.16015625 C79.09579212 19.9075059 79.0943682 21.65485607 79.09336853 23.40220642 C79.08954293 28.01031934 79.07971229 32.61840095 79.06866455 37.22650146 C79.05845134 41.92508521 79.0538711 46.62367399 79.04882812 51.32226562 C79.03809005 60.54819087 79.02101313 69.77409284 79 79 C68.84733849 79.02312392 58.6946832 79.04091534 48.54200077 79.05181217 C43.82820267 79.05704089 39.11442253 79.06413834 34.40063477 79.07543945 C29.85544596 79.08626873 25.31027448 79.09227692 20.76507378 79.09487724 C19.02705042 79.09673142 17.28902806 79.10035189 15.55101204 79.10573006 C13.12521405 79.11294103 10.69948854 79.11399092 8.27368164 79.11352539 C7.54791931 79.11712067 6.82215698 79.12071594 6.07440186 79.12442017 C1.11405216 79.11405216 1.11405216 79.11405216 0 78 C-0.09498646 75.56603981 -0.12558417 73.16057048 -0.11352539 70.72631836 C-0.11367142 69.96539383 -0.11381744 69.2044693 -0.1139679 68.42048645 C-0.11326862 65.89357702 -0.10547555 63.36674038 -0.09765625 60.83984375 C-0.09579212 59.0924941 -0.0943682 57.34514393 -0.09336853 55.59779358 C-0.08954293 50.98968066 -0.07971229 46.38159905 -0.06866455 41.77349854 C-0.05845134 37.07491479 -0.0538711 32.37632601 -0.04882812 27.67773438 C-0.03809005 18.45180913 -0.02101313 9.22590716 0 0 Z " fill="#71949E" transform="translate(240,480)"/>
<path d="M0 0 C10.15266151 -0.02312392 20.3053168 -0.04091534 30.45799923 -0.05181217 C35.17179733 -0.05704089 39.88557747 -0.06413834 44.59936523 -0.07543945 C49.14455404 -0.08626873 53.68972552 -0.09227692 58.23492622 -0.09487724 C59.97294958 -0.09673142 61.71097194 -0.10035189 63.44898796 -0.10573006 C65.87478595 -0.11294103 68.30051146 -0.11399092 70.72631836 -0.11352539 C71.45208069 -0.11712067 72.17784302 -0.12071594 72.92559814 -0.12442017 C77.88594784 -0.11405216 77.88594784 -0.11405216 79 1 C79.09498646 3.43396019 79.12558417 5.83942952 79.11352539 8.27368164 C79.11367142 9.03460617 79.11381744 9.7955307 79.1139679 10.57951355 C79.11326862 13.10642298 79.10547555 15.63325962 79.09765625 18.16015625 C79.09579212 19.9075059 79.0943682 21.65485607 79.09336853 23.40220642 C79.08954293 28.01031934 79.07971229 32.61840095 79.06866455 37.22650146 C79.05845134 41.92508521 79.0538711 46.62367399 79.04882812 51.32226562 C79.03809005 60.54819087 79.02101313 69.77409284 79 79 C68.84733849 79.02312392 58.6946832 79.04091534 48.54200077 79.05181217 C43.82820267 79.05704089 39.11442253 79.06413834 34.40063477 79.07543945 C29.85544596 79.08626873 25.31027448 79.09227692 20.76507378 79.09487724 C19.02705042 79.09673142 17.28902806 79.10035189 15.55101204 79.10573006 C13.12521405 79.11294103 10.69948854 79.11399092 8.27368164 79.11352539 C7.54791931 79.11712067 6.82215698 79.12071594 6.07440186 79.12442017 C1.11405216 79.11405216 1.11405216 79.11405216 0 78 C-0.09498646 75.56603981 -0.12558417 73.16057048 -0.11352539 70.72631836 C-0.11367142 69.96539383 -0.11381744 69.2044693 -0.1139679 68.42048645 C-0.11326862 65.89357702 -0.10547555 63.36674038 -0.09765625 60.83984375 C-0.09579212 59.0924941 -0.0943682 57.34514393 -0.09336853 55.59779358 C-0.08954293 50.98968066 -0.07971229 46.38159905 -0.06866455 41.77349854 C-0.05845134 37.07491479 -0.0538711 32.37632601 -0.04882812 27.67773438 C-0.03809005 18.45180913 -0.02101313 9.22590716 0 0 Z " fill="#71949E" transform="translate(240,320)"/>
<path d="M0 0 C0.33 0 0.66 0 1 0 C1 155.1 1 310.2 1 470 C0.67 470 0.34 470 0 470 C0 314.9 0 159.8 0 0 Z " fill="#000102" transform="translate(1040,109)"/>
<path d="M0 0 C25.74 0 51.48 0 78 0 C78 0.99 78 1.98 78 3 C52.92 2.67 27.84 2.34 2 2 C2.33 27.41 2.66 52.82 3 79 C2.01 78.67 1.02 78.34 0 78 C0 52.26 0 26.52 0 0 Z " fill="#607F87" transform="translate(240,800)"/>
<path d="M0 0 C25.74 0 51.48 0 78 0 C78 0.99 78 1.98 78 3 C52.92 2.67 27.84 2.34 2 2 C2.33 27.41 2.66 52.82 3 79 C2.01 78.67 1.02 78.34 0 78 C0 52.26 0 26.52 0 0 Z " fill="#607F87" transform="translate(240,640)"/>
<path d="M0 0 C25.74 0 51.48 0 78 0 C78 0.99 78 1.98 78 3 C52.92 2.67 27.84 2.34 2 2 C2.33 27.41 2.66 52.82 3 79 C2.01 78.67 1.02 78.34 0 78 C0 52.26 0 26.52 0 0 Z " fill="#607F87" transform="translate(240,480)"/>
<path d="M0 0 C25.74 0 51.48 0 78 0 C78 0.99 78 1.98 78 3 C52.92 2.67 27.84 2.34 2 2 C2.33 27.41 2.66 52.82 3 79 C2.01 78.67 1.02 78.34 0 78 C0 52.26 0 26.52 0 0 Z " fill="#607F87" transform="translate(240,320)"/>
<path d="M0 0 C0 0.99 0 1.98 0 3 C-2.64 3.33 -5.28 3.66 -8 4 C-8 4.66 -8 5.32 -8 6 C-18.89 6 -29.78 6 -41 6 C-40.67 5.34 -40.34 4.68 -40 4 C-37.39892578 3.51342773 -37.39892578 3.51342773 -33.9453125 3.18359375 C-32.68976562 3.05919922 -31.43421875 2.93480469 -30.140625 2.80664062 C-28.8021013 2.6833985 -27.4635595 2.56035276 -26.125 2.4375 C-24.19527344 2.24897461 -24.19527344 2.24897461 -22.2265625 2.05664062 C-14.8208499 1.33789514 -7.41071889 0.66501502 0 0 Z " fill="#EAD19E" transform="translate(986,1274)"/>
<path d="M0 0 C0.33 0.66 0.66 1.32 1 2 C2.32972345 2.6738381 3.66353688 3.33962999 5 4 C7.37422762 5.97455591 9.51080917 8.18625662 11.6875 10.375 C12.28111328 10.9525 12.87472656 11.53 13.48632812 12.125 C14.33420898 12.97191406 14.33420898 12.97191406 15.19921875 13.8359375 C15.71315186 14.34688965 16.22708496 14.8578418 16.7565918 15.38427734 C18.17654635 17.22940973 18.59023148 18.72733945 19 21 C18.34 21 17.68 21 17 21 C17 20.34 17 19.68 17 19 C16.34 19 15.68 19 15 19 C15 18.34 15 17.68 15 17 C14.34 17 13.68 17 13 17 C13 16.34 13 15.68 13 15 C12.34 15 11.68 15 11 15 C11 14.34 11 13.68 11 13 C10.34 13 9.68 13 9 13 C9 12.34 9 11.68 9 11 C8.34 11 7.68 11 7 11 C7 10.34 7 9.68 7 9 C6.34 9 5.68 9 5 9 C5 8.34 5 7.68 5 7 C4.34 7 3.68 7 3 7 C3 6.34 3 5.68 3 5 C2.34 5 1.68 5 1 5 C1 4.34 1 3.68 1 3 C0.34 3 -0.32 3 -1 3 C-0.67 2.01 -0.34 1.02 0 0 Z " fill="#72B6CA" transform="translate(1167,658)"/>
<path d="" fill="#000102" transform="translate(0,0)"/>
<path d="" fill="#000102" transform="translate(0,0)"/>
<path d="M0 0 C2 1 2 1 2 1 Z " fill="#000102" transform="translate(988,1275)"/>
<path d="M0 0 C2 1 2 1 2 1 Z " fill="#000102" transform="translate(1006,1270)"/>
<path d="M0 0 C2 1 2 1 2 1 Z " fill="#000102" transform="translate(1034,1262)"/>
<path d="" fill="#000102" transform="translate(0,0)"/>
<path d="" fill="#000102" transform="translate(0,0)"/>
<path d="" fill="#000102" transform="translate(0,0)"/>
<path d="" fill="#000102" transform="translate(0,0)"/>
<path d="" fill="#000102" transform="translate(0,0)"/>
<path d="" fill="#000102" transform="translate(0,0)"/>
<path d="" fill="#000102" transform="translate(0,0)"/>
<path d="" fill="#000102" transform="translate(0,0)"/>
<path d="" fill="#506A71" transform="translate(0,0)"/>
<path d="" fill="#000102" transform="translate(0,0)"/>
<path d="" fill="#EBEFF0" transform="translate(0,0)"/>
<path d="" fill="#000102" transform="translate(0,0)"/>
<path d="" fill="#000102" transform="translate(0,0)"/>
<path d="" fill="#000102" transform="translate(0,0)"/>
<path d="" fill="#506A71" transform="translate(0,0)"/>
<path d="" fill="#000102" transform="translate(0,0)"/>
<path d="" fill="#000102" transform="translate(0,0)"/>
<path d="" fill="#000102" transform="translate(0,0)"/>
<path d="" fill="#000102" transform="translate(0,0)"/>
<path d="" fill="#000102" transform="translate(0,0)"/>
<path d="" fill="#000102" transform="translate(0,0)"/>
<path d="" fill="#000102" transform="translate(0,0)"/>
<path d="" fill="#EACE97" transform="translate(0,0)"/>
<path d="" fill="#EACE97" transform="translate(0,0)"/>
<path d="" fill="#EACE97" transform="translate(0,0)"/>
</svg>
